
<svg width="800" height="600" viewBox="0 0 800 600" fill="none" xmlns="http://www.w3.org/2000/svg">
<rect width="800" height="600" fill="#cacaca"/>
<path d="M468.369 342.733C468.369 348.983 463.256 354.097 457.006 354.097H343.363C337.113 354.097 332 348.984 332 342.733V256.363C332 250.113 337.113 245 343.363 245H457.006C463.256 245 468.369 250.113 468.369 256.363V342.733ZM343.363 254.091C342.156 254.091 341.092 255.159 341.092 256.362V342.732C341.092 343.939 342.157 345.003 343.363 345.003H457.006C458.209 345.003 459.28 343.939 459.28 342.732V256.362C459.28 255.159 458.209 254.091 457.006 254.091H343.363ZM363.821 290.456C356.292 290.456 350.18 284.348 350.18 276.821C350.18 269.294 356.292 263.183 363.821 263.183C371.347 263.183 377.453 269.294 377.453 276.821C377.453 284.348 371.348 290.456 363.821 290.456ZM450.185 335.915H350.18V322.275L372.91 299.551L384.273 310.911L420.638 274.55L450.185 304.097V335.915Z" fill="#777777"/>
</svg>