<svg width="138" height="129" viewBox="0 0 138 129" fill="none" xmlns="http://www.w3.org/2000/svg">

<style>
    path:not(.logo-letter) {
        fill: #08223C;
    }
    @media (prefers-color-scheme: dark) {
        path:not(.logo-letter) {
            fill: white;
        }
    }
    .logo-letter path {
        fill: #08223C;
    }
    @media (prefers-color-scheme: dark) {
        .logo-letter path {
            fill: #08223C;
        }
    }
</style>
<rect width="138" height="129" fill="#08223C"/>
<path class="logo-letter" d="M17.5624 79.2792C19.4028 82.4704 21.3632 85.3026 23.4437 87.7758C25.6042 90.1692 27.9647 92.044 30.5253 93.4003C33.0858 94.6768 35.9665 95.315 39.1672 95.315C43.0081 95.315 46.1288 94.2779 48.5293 92.2036C50.9299 90.1293 52.1301 87.4567 52.1301 84.1857C52.1301 81.0743 51.37 78.6011 49.8496 76.7662C48.3293 74.8514 46.2088 73.2558 43.4882 71.9794C40.8476 70.6231 37.7669 69.3067 34.2461 68.0303C32.1656 67.3122 29.8451 66.3549 27.2846 65.1582C24.724 63.8817 22.2834 62.326 19.9629 60.4911C17.6424 58.5763 15.722 56.2627 14.2016 53.5502C12.6813 50.7579 11.9211 47.4071 11.9211 43.4979C11.9211 39.0303 13.0814 35.121 15.4019 31.7703C17.7224 28.3398 20.8431 25.707 24.764 23.8721C28.7649 21.9574 33.2859 21 38.327 21C43.2881 21 47.6091 21.8776 51.2899 23.6327C54.9708 25.3879 58.0515 27.6217 60.532 30.3343C63.0926 33.0468 65.093 35.879 66.5334 38.8308L55.0108 45.293C53.9705 43.2187 52.6502 41.304 51.0499 39.5488C49.4495 37.7139 47.5691 36.2778 45.4086 35.2407C43.3281 34.1238 40.8876 33.5653 38.087 33.5653C34.1661 33.5653 31.2854 34.4828 29.445 36.3177C27.6046 38.0729 26.6844 40.1472 26.6844 42.5406C26.6844 44.6946 27.3246 46.6492 28.6048 48.4044C29.9652 50.0798 32.0456 51.6754 34.8462 53.1912C37.6469 54.707 41.2877 56.2627 45.7687 57.8583C48.2493 58.7359 50.7298 59.8528 53.2104 61.2091C55.7709 62.5653 58.0915 64.2806 60.1719 66.3549C62.2524 68.3494 63.8928 70.7029 65.093 73.4154C66.3733 76.1279 67.0135 79.3191 67.0135 82.989C67.0135 86.8982 66.2533 90.4085 64.7329 93.5199C63.2126 96.6314 61.1321 99.2641 58.4915 101.418C55.851 103.492 52.8503 105.088 49.4895 106.205C46.2088 107.402 42.768 108 39.1672 108C34.2061 108 29.6051 107.043 25.3641 105.128C21.2032 103.133 17.5624 100.501 14.4417 97.2297C11.321 93.9587 8.84041 90.4085 7 86.5791L17.5624 79.2792Z" fill="white"/>
<path class="" d="M75.5476 22.436H89.7107V106.205H75.5476V22.436ZM83.9494 34.8817V22.436H100.873C106.955 22.436 112.236 23.5131 116.717 25.6671C121.278 27.7414 124.799 30.7331 127.279 34.6424C129.76 38.4718 131 43.0591 131 48.4044C131 53.7497 129.76 58.3769 127.279 62.2861C124.799 66.1953 121.278 69.227 116.717 71.381C112.236 73.4553 106.955 74.4924 100.873 74.4924H83.9494V62.0468H100.873C105.754 62.0468 109.675 60.89 112.636 58.5763C115.597 56.2627 117.077 52.8721 117.077 48.4044C117.077 43.9367 115.597 40.586 112.636 38.3521C109.675 36.0385 105.754 34.8817 100.873 34.8817H83.9494Z" fill="white"/>
</svg>
