<svg width="536" height="345" viewBox="0 0 536 345" fill="none" xmlns="http://www.w3.org/2000/svg">
<path d="M174.376 59H28.5C26.0147 59 24 61.0147 24 63.5C24 65.9853 26.0147 68 28.5 68H174.376C176.861 68 178.876 65.9853 178.876 63.5C178.876 61.0147 176.861 59 174.376 59Z" fill="#6B7280"/>
<path d="M272 80H27C25.3431 80 24 81.3431 24 83C24 84.6569 25.3431 86 27 86H272C273.657 86 275 84.6569 275 83C275 81.3431 273.657 80 272 80Z" fill="#9CA3AF"/>
<path d="M223 92H27C25.3431 92 24 93.3431 24 95C24 96.6569 25.3431 98 27 98H223C224.657 98 226 96.6569 226 95C226 93.3431 224.657 92 223 92Z" fill="#9CA3AF"/>
<path d="M173.667 130.5H29C26.5147 130.5 24.5 132.515 24.5 135V247C24.5 249.485 26.5147 251.5 29 251.5H173.667C176.152 251.5 178.167 249.485 178.167 247V135C178.167 132.515 176.152 130.5 173.667 130.5Z" fill="white"/>
<path d="M165.667 138H37C34.2386 138 32 140.239 32 143V181C32 183.761 34.2386 186 37 186H165.667C168.428 186 170.667 183.761 170.667 181V143C170.667 140.239 168.428 138 165.667 138Z" fill="#E5E7EB"/>
<path fill-rule="evenodd" clip-rule="evenodd" d="M112.176 154.176C114.2 154.176 115.841 152.458 115.841 150.338C115.841 148.218 114.2 146.5 112.176 146.5C110.152 146.5 108.511 148.218 108.511 150.338C108.511 152.458 110.152 154.176 112.176 154.176ZM102.032 177.416H79.8765C79.0993 177.416 78.6192 176.569 79.019 175.902L94.1346 150.703C94.517 150.066 95.4333 150.049 95.832 150.676C97.7896 153.757 102.715 161.518 106.905 168.213L111.449 160.592C111.817 159.976 112.68 159.956 113.089 160.554L123.552 175.833C124.01 176.503 123.564 177.421 122.775 177.429L112.622 177.532L102.032 177.416Z" fill="#D1D5DB"/>
<path d="M81 196H34C32.8954 196 32 196.895 32 198V199C32 200.105 32.8954 201 34 201H81C82.1046 201 83 200.105 83 199V198C83 196.895 82.1046 196 81 196Z" fill="#9CA3AF"/>
<path d="M118 209H34C32.8954 209 32 209.895 32 211C32 212.105 32.8954 213 34 213H118C119.105 213 120 212.105 120 211C120 209.895 119.105 209 118 209Z" fill="#D1D5DB"/>
<path d="M109 217H34C32.8954 217 32 217.895 32 219C32 220.105 32.8954 221 34 221H109C110.105 221 111 220.105 111 219C111 217.895 110.105 217 109 217Z" fill="#D1D5DB"/>
<path d="M113 225H34C32.8954 225 32 225.895 32 227C32 228.105 32.8954 229 34 229H113C114.105 229 115 228.105 115 227C115 225.895 114.105 225 113 225Z" fill="#D1D5DB"/>
<path d="M64 239H34C32.8954 239 32 239.895 32 241V242C32 243.105 32.8954 244 34 244H64C65.1046 244 66 243.105 66 242V241C66 239.895 65.1046 239 64 239Z" fill="#1C64F2"/>
<path d="M169.168 240H121.168C120.34 240 119.668 240.672 119.668 241.5C119.668 242.328 120.34 243 121.168 243H169.168C169.996 243 170.668 242.328 170.668 241.5C170.668 240.672 169.996 240 169.168 240Z" fill="#E5E7EB"/>
<path d="M173.667 130.5H29C26.5147 130.5 24.5 132.515 24.5 135V247C24.5 249.485 26.5147 251.5 29 251.5H173.667C176.152 251.5 178.167 249.485 178.167 247V135C178.167 132.515 176.152 130.5 173.667 130.5Z" stroke="#E5E7EB"/>
<path d="M340.335 130.5H195.668C193.183 130.5 191.168 132.515 191.168 135V247C191.168 249.485 193.183 251.5 195.668 251.5H340.335C342.82 251.5 344.835 249.485 344.835 247V135C344.835 132.515 342.82 130.5 340.335 130.5Z" fill="white"/>
<path d="M332.335 138H203.668C200.907 138 198.668 140.239 198.668 143V181C198.668 183.761 200.907 186 203.668 186H332.335C335.096 186 337.335 183.761 337.335 181V143C337.335 140.239 335.096 138 332.335 138Z" fill="#E5E7EB"/>
<path fill-rule="evenodd" clip-rule="evenodd" d="M278.844 154.176C280.868 154.176 282.509 152.458 282.509 150.338C282.509 148.218 280.868 146.5 278.844 146.5C276.82 146.5 275.179 148.218 275.179 150.338C275.179 152.458 276.82 154.176 278.844 154.176ZM268.7 177.416H246.545C245.767 177.416 245.287 176.569 245.687 175.902L260.803 150.703C261.185 150.066 262.101 150.049 262.5 150.676C264.458 153.757 269.383 161.518 273.573 168.213L278.117 160.592C278.485 159.976 279.348 159.956 279.757 160.554L290.22 175.833C290.678 176.503 290.232 177.421 289.443 177.429L279.29 177.532L268.7 177.416Z" fill="#D1D5DB"/>
<path d="M247.668 196H200.668C199.563 196 198.668 196.895 198.668 198V199C198.668 200.105 199.563 201 200.668 201H247.668C248.773 201 249.668 200.105 249.668 199V198C249.668 196.895 248.773 196 247.668 196Z" fill="#9CA3AF"/>
<path d="M284.668 209H200.668C199.563 209 198.668 209.895 198.668 211C198.668 212.105 199.563 213 200.668 213H284.668C285.773 213 286.668 212.105 286.668 211C286.668 209.895 285.773 209 284.668 209Z" fill="#D1D5DB"/>
<path d="M275.668 217H200.668C199.563 217 198.668 217.895 198.668 219C198.668 220.105 199.563 221 200.668 221H275.668C276.773 221 277.668 220.105 277.668 219C277.668 217.895 276.773 217 275.668 217Z" fill="#D1D5DB"/>
<path d="M279.668 225H200.668C199.563 225 198.668 225.895 198.668 227C198.668 228.105 199.563 229 200.668 229H279.668C280.773 229 281.668 228.105 281.668 227C281.668 225.895 280.773 225 279.668 225Z" fill="#D1D5DB"/>
<path d="M230.668 239H200.668C199.563 239 198.668 239.895 198.668 241V242C198.668 243.105 199.563 244 200.668 244H230.668C231.773 244 232.668 243.105 232.668 242V241C232.668 239.895 231.773 239 230.668 239Z" fill="#1C64F2"/>
<path d="M335.836 240H287.836C287.008 240 286.336 240.672 286.336 241.5C286.336 242.328 287.008 243 287.836 243H335.836C336.664 243 337.336 242.328 337.336 241.5C337.336 240.672 336.664 240 335.836 240Z" fill="#E5E7EB"/>
<path d="M340.335 130.5H195.668C193.183 130.5 191.168 132.515 191.168 135V247C191.168 249.485 193.183 251.5 195.668 251.5H340.335C342.82 251.5 344.835 249.485 344.835 247V135C344.835 132.515 342.82 130.5 340.335 130.5Z" stroke="#E5E7EB"/>
<path d="M506.999 130.5H362.332C359.847 130.5 357.832 132.515 357.832 135V247C357.832 249.485 359.847 251.5 362.332 251.5H506.999C509.484 251.5 511.499 249.485 511.499 247V135C511.499 132.515 509.484 130.5 506.999 130.5Z" fill="white"/>
<path d="M498.999 138H370.332C367.571 138 365.332 140.239 365.332 143V181C365.332 183.761 367.571 186 370.332 186H498.999C501.76 186 503.999 183.761 503.999 181V143C503.999 140.239 501.76 138 498.999 138Z" fill="#E5E7EB"/>
<path fill-rule="evenodd" clip-rule="evenodd" d="M445.508 154.176C447.532 154.176 449.173 152.458 449.173 150.338C449.173 148.218 447.532 146.5 445.508 146.5C443.484 146.5 441.843 148.218 441.843 150.338C441.843 152.458 443.484 154.176 445.508 154.176ZM435.364 177.416H413.209C412.431 177.416 411.951 176.569 412.351 175.902L427.467 150.703C427.849 150.066 428.765 150.049 429.164 150.676C431.122 153.757 436.047 161.518 440.237 168.213L444.781 160.592C445.149 159.976 446.012 159.956 446.421 160.554L456.884 175.833C457.342 176.503 456.896 177.421 456.107 177.429L445.954 177.532L435.364 177.416Z" fill="#D1D5DB"/>
<path d="M414.332 196H367.332C366.227 196 365.332 196.895 365.332 198V199C365.332 200.105 366.227 201 367.332 201H414.332C415.437 201 416.332 200.105 416.332 199V198C416.332 196.895 415.437 196 414.332 196Z" fill="#9CA3AF"/>
<path d="M451.332 209H367.332C366.227 209 365.332 209.895 365.332 211C365.332 212.105 366.227 213 367.332 213H451.332C452.437 213 453.332 212.105 453.332 211C453.332 209.895 452.437 209 451.332 209Z" fill="#D1D5DB"/>
<path d="M442.332 217H367.332C366.227 217 365.332 217.895 365.332 219C365.332 220.105 366.227 221 367.332 221H442.332C443.437 221 444.332 220.105 444.332 219C444.332 217.895 443.437 217 442.332 217Z" fill="#D1D5DB"/>
<path d="M446.332 225H367.332C366.227 225 365.332 225.895 365.332 227C365.332 228.105 366.227 229 367.332 229H446.332C447.437 229 448.332 228.105 448.332 227C448.332 225.895 447.437 225 446.332 225Z" fill="#D1D5DB"/>
<path d="M397.332 239H367.332C366.227 239 365.332 239.895 365.332 241V242C365.332 243.105 366.227 244 367.332 244H397.332C398.437 244 399.332 243.105 399.332 242V241C399.332 239.895 398.437 239 397.332 239Z" fill="#1C64F2"/>
<path d="M502.5 240H454.5C453.672 240 453 240.672 453 241.5C453 242.328 453.672 243 454.5 243H502.5C503.328 243 504 242.328 504 241.5C504 240.672 503.328 240 502.5 240Z" fill="#E5E7EB"/>
<path d="M506.999 130.5H362.332C359.847 130.5 357.832 132.515 357.832 135V247C357.832 249.485 359.847 251.5 362.332 251.5H506.999C509.484 251.5 511.499 249.485 511.499 247V135C511.499 132.515 509.484 130.5 506.999 130.5Z" stroke="#E5E7EB"/>
<path d="M294.5 273H241.5C239.843 273 238.5 274.343 238.5 276V283C238.5 284.657 239.843 286 241.5 286H294.5C296.157 286 297.5 284.657 297.5 283V276C297.5 274.343 296.157 273 294.5 273Z" fill="#F3F4F6"/>
<path d="M283.5 277.455H252.5C251.395 277.455 250.5 278.351 250.5 279.455V279.546C250.5 280.65 251.395 281.546 252.5 281.546H283.5C284.605 281.546 285.5 280.65 285.5 279.546V279.455C285.5 278.351 284.605 277.455 283.5 277.455Z" fill="#D1D5DB"/>
</svg>
