<svg width="536" height="345" viewBox="0 0 536 345" fill="none" xmlns="http://www.w3.org/2000/svg">
<path d="M340.938 49H195.062C192.577 49 190.562 51.0147 190.562 53.5C190.562 55.9853 192.577 58 195.062 58H340.938C343.423 58 345.438 55.9853 345.438 53.5C345.438 51.0147 343.423 49 340.938 49Z" fill="#6B7280"/>
<path d="M390.5 70H145.5C143.843 70 142.5 71.3431 142.5 73C142.5 74.6569 143.843 76 145.5 76H390.5C392.157 76 393.5 74.6569 393.5 73C393.5 71.3431 392.157 70 390.5 70Z" fill="#9CA3AF"/>
<path d="M366 82H170C168.343 82 167 83.3431 167 85C167 86.6569 168.343 88 170 88H366C367.657 88 369 86.6569 369 85C369 83.3431 367.657 82 366 82Z" fill="#9CA3AF"/>
<path d="M133 121H25C23.8954 121 23 121.895 23 123C23 124.105 23.8954 125 25 125H133C134.105 125 135 124.105 135 123C135 121.895 134.105 121 133 121Z" fill="#D1D5DB"/>
<path d="M140 130H18C16.8954 130 16 130.895 16 132C16 133.105 16.8954 134 18 134H140C141.105 134 142 133.105 142 132C142 130.895 141.105 130 140 130Z" fill="#D1D5DB"/>
<path d="M121.5 139H36.5C35.3954 139 34.5 139.895 34.5 141C34.5 142.105 35.3954 143 36.5 143H121.5C122.605 143 123.5 142.105 123.5 141C123.5 139.895 122.605 139 121.5 139Z" fill="#D1D5DB"/>
<path d="M322.334 121H214.334C213.229 121 212.334 121.895 212.334 123C212.334 124.105 213.229 125 214.334 125H322.334C323.439 125 324.334 124.105 324.334 123C324.334 121.895 323.439 121 322.334 121Z" fill="#D1D5DB"/>
<path d="M329.334 130H207.334C206.229 130 205.334 130.895 205.334 132C205.334 133.105 206.229 134 207.334 134H329.334C330.439 134 331.334 133.105 331.334 132C331.334 130.895 330.439 130 329.334 130Z" fill="#D1D5DB"/>
<path d="M310.834 139H225.834C224.729 139 223.834 139.895 223.834 141C223.834 142.105 224.729 143 225.834 143H310.834C311.939 143 312.834 142.105 312.834 141C312.834 139.895 311.939 139 310.834 139Z" fill="#D1D5DB"/>
<path d="M511.666 121H403.666C402.561 121 401.666 121.895 401.666 123C401.666 124.105 402.561 125 403.666 125H511.666C512.771 125 513.666 124.105 513.666 123C513.666 121.895 512.771 121 511.666 121Z" fill="#D1D5DB"/>
<path d="M518.666 130H396.666C395.561 130 394.666 130.895 394.666 132C394.666 133.105 395.561 134 396.666 134H518.666C519.771 134 520.666 133.105 520.666 132C520.666 130.895 519.771 130 518.666 130Z" fill="#D1D5DB"/>
<path d="M500.166 139H415.166C414.061 139 413.166 139.895 413.166 141C413.166 142.105 414.061 143 415.166 143H500.166C501.271 143 502.166 142.105 502.166 141C502.166 139.895 501.271 139 500.166 139Z" fill="#D1D5DB"/>
<path d="M133 176H25C23.8954 176 23 176.895 23 178C23 179.105 23.8954 180 25 180H133C134.105 180 135 179.105 135 178C135 176.895 134.105 176 133 176Z" fill="#D1D5DB"/>
<path d="M140 185H18C16.8954 185 16 185.895 16 187C16 188.105 16.8954 189 18 189H140C141.105 189 142 188.105 142 187C142 185.895 141.105 185 140 185Z" fill="#D1D5DB"/>
<path d="M121.5 194H36.5C35.3954 194 34.5 194.895 34.5 196C34.5 197.105 35.3954 198 36.5 198H121.5C122.605 198 123.5 197.105 123.5 196C123.5 194.895 122.605 194 121.5 194Z" fill="#D1D5DB"/>
<path d="M322.334 176H214.334C213.229 176 212.334 176.895 212.334 178C212.334 179.105 213.229 180 214.334 180H322.334C323.439 180 324.334 179.105 324.334 178C324.334 176.895 323.439 176 322.334 176Z" fill="#D1D5DB"/>
<path d="M329.334 185H207.334C206.229 185 205.334 185.895 205.334 187C205.334 188.105 206.229 189 207.334 189H329.334C330.439 189 331.334 188.105 331.334 187C331.334 185.895 330.439 185 329.334 185Z" fill="#D1D5DB"/>
<path d="M310.834 194H225.834C224.729 194 223.834 194.895 223.834 196C223.834 197.105 224.729 198 225.834 198H310.834C311.939 198 312.834 197.105 312.834 196C312.834 194.895 311.939 194 310.834 194Z" fill="#D1D5DB"/>
<path d="M511.666 176H403.666C402.561 176 401.666 176.895 401.666 178C401.666 179.105 402.561 180 403.666 180H511.666C512.771 180 513.666 179.105 513.666 178C513.666 176.895 512.771 176 511.666 176Z" fill="#D1D5DB"/>
<path d="M518.666 185H396.666C395.561 185 394.666 185.895 394.666 187C394.666 188.105 395.561 189 396.666 189H518.666C519.771 189 520.666 188.105 520.666 187C520.666 185.895 519.771 185 518.666 185Z" fill="#D1D5DB"/>
<path d="M500.166 194H415.166C414.061 194 413.166 194.895 413.166 196C413.166 197.105 414.061 198 415.166 198H500.166C501.271 198 502.166 197.105 502.166 196C502.166 194.895 501.271 194 500.166 194Z" fill="#D1D5DB"/>
<path d="M300 251H236C234.343 251 233 249.657 233 248V234C233 232.343 234.343 231 236 231H300C301.657 231 303 232.343 303 234V248C303 249.657 301.657 251 300 251Z" fill="#1A56DB"/>
<path d="M285 238H251C249.895 238 249 238.895 249 240V242C249 243.105 249.895 244 251 244H285C286.105 244 287 243.105 287 242V240C287 238.895 286.105 238 285 238Z" fill="white"/>
</svg>
