<svg width="536" height="345" viewBox="0 0 536 345" fill="none" xmlns="http://www.w3.org/2000/svg">
<g clip-path="url(#clip0_42_439)">
<mask id="mask0_42_439" style="mask-type:luminance" maskUnits="userSpaceOnUse" x="0" y="0" width="536" height="345">
<path d="M536 0H0V345H536V0Z" fill="white"/>
</mask>
<g mask="url(#mask0_42_439)">
<path d="M340.938 39.5H195.062C192.577 39.5 190.562 41.5147 190.562 44C190.562 46.4853 192.577 48.5 195.062 48.5H340.938C343.423 48.5 345.438 46.4853 345.438 44C345.438 41.5147 343.423 39.5 340.938 39.5Z" fill="#6B7280"/>
<path d="M390.5 60.5H145.5C143.843 60.5 142.5 61.8431 142.5 63.5C142.5 65.1569 143.843 66.5 145.5 66.5H390.5C392.157 66.5 393.5 65.1569 393.5 63.5C393.5 61.8431 392.157 60.5 390.5 60.5Z" fill="#9CA3AF"/>
<path d="M366 72.5H170C168.343 72.5 167 73.8431 167 75.5C167 77.1569 168.343 78.5 170 78.5H366C367.657 78.5 369 77.1569 369 75.5C369 73.8431 367.657 72.5 366 72.5Z" fill="#9CA3AF"/>
<path d="M407 102.5H129C124.582 102.5 121 106.082 121 110.5V297.5C121 301.918 124.582 305.5 129 305.5H407C411.418 305.5 415 301.918 415 297.5V110.5C415 106.082 411.418 102.5 407 102.5Z" fill="white"/>
<path d="M410 102.5H126C123.239 102.5 121 104.739 121 107.5V300.5C121 303.261 123.239 305.5 126 305.5H410C412.761 305.5 415 303.261 415 300.5V107.5C415 104.739 412.761 102.5 410 102.5Z" fill="white"/>
<path d="M181.5 113.5H133.5C132.672 113.5 132 114.172 132 115C132 115.828 132.672 116.5 133.5 116.5H181.5C182.328 116.5 183 115.828 183 115C183 114.172 182.328 113.5 181.5 113.5Z" fill="#D1D5DB"/>
<path d="M259 124H136C133.515 124 131.5 126.015 131.5 128.5V136.5C131.5 138.985 133.515 141 136 141H259C261.485 141 263.5 138.985 263.5 136.5V128.5C263.5 126.015 261.485 124 259 124Z" fill="white"/>
<path d="M194 131.5H140C139.448 131.5 139 131.948 139 132.5C139 133.052 139.448 133.5 140 133.5H194C194.552 133.5 195 133.052 195 132.5C195 131.948 194.552 131.5 194 131.5Z" fill="#E5E7EB"/>
<path d="M259 124H136C133.515 124 131.5 126.015 131.5 128.5V136.5C131.5 138.985 133.515 141 136 141H259C261.485 141 263.5 138.985 263.5 136.5V128.5C263.5 126.015 261.485 124 259 124Z" stroke="#D1D5DB"/>
<path d="M322.5 113.5H274.5C273.672 113.5 273 114.172 273 115C273 115.828 273.672 116.5 274.5 116.5H322.5C323.328 116.5 324 115.828 324 115C324 114.172 323.328 113.5 322.5 113.5Z" fill="#D1D5DB"/>
<path d="M400 124H277C274.515 124 272.5 126.015 272.5 128.5V136.5C272.5 138.985 274.515 141 277 141H400C402.485 141 404.5 138.985 404.5 136.5V128.5C404.5 126.015 402.485 124 400 124Z" fill="white"/>
<path d="M335 131.5H281C280.448 131.5 280 131.948 280 132.5C280 133.052 280.448 133.5 281 133.5H335C335.552 133.5 336 133.052 336 132.5C336 131.948 335.552 131.5 335 131.5Z" fill="#E5E7EB"/>
<path d="M400 124H277C274.515 124 272.5 126.015 272.5 128.5V136.5C272.5 138.985 274.515 141 277 141H400C402.485 141 404.5 138.985 404.5 136.5V128.5C404.5 126.015 402.485 124 400 124Z" stroke="#D1D5DB"/>
<path d="M181.5 152.5H133.5C132.672 152.5 132 153.172 132 154C132 154.828 132.672 155.5 133.5 155.5H181.5C182.328 155.5 183 154.828 183 154C183 153.172 182.328 152.5 181.5 152.5Z" fill="#D1D5DB"/>
<path d="M259 163H136C133.515 163 131.5 165.015 131.5 167.5V175.5C131.5 177.985 133.515 180 136 180H259C261.485 180 263.5 177.985 263.5 175.5V167.5C263.5 165.015 261.485 163 259 163Z" fill="white"/>
<path d="M194 170.5H140C139.448 170.5 139 170.948 139 171.5C139 172.052 139.448 172.5 140 172.5H194C194.552 172.5 195 172.052 195 171.5C195 170.948 194.552 170.5 194 170.5Z" fill="#E5E7EB"/>
<path d="M259 163H136C133.515 163 131.5 165.015 131.5 167.5V175.5C131.5 177.985 133.515 180 136 180H259C261.485 180 263.5 177.985 263.5 175.5V167.5C263.5 165.015 261.485 163 259 163Z" stroke="#D1D5DB"/>
<path d="M322.5 152.5H274.5C273.672 152.5 273 153.172 273 154C273 154.828 273.672 155.5 274.5 155.5H322.5C323.328 155.5 324 154.828 324 154C324 153.172 323.328 152.5 322.5 152.5Z" fill="#D1D5DB"/>
<path d="M400 163H277C274.515 163 272.5 165.015 272.5 167.5V175.5C272.5 177.985 274.515 180 277 180H400C402.485 180 404.5 177.985 404.5 175.5V167.5C404.5 165.015 402.485 163 400 163Z" fill="white"/>
<path d="M335 170.5H281C280.448 170.5 280 170.948 280 171.5C280 172.052 280.448 172.5 281 172.5H335C335.552 172.5 336 172.052 336 171.5C336 170.948 335.552 170.5 335 170.5Z" fill="#E5E7EB"/>
<path d="M400 163H277C274.515 163 272.5 165.015 272.5 167.5V175.5C272.5 177.985 274.515 180 277 180H400C402.485 180 404.5 177.985 404.5 175.5V167.5C404.5 165.015 402.485 163 400 163Z" stroke="#D1D5DB"/>
<path d="M181.5 191.5H133.5C132.672 191.5 132 192.172 132 193C132 193.828 132.672 194.5 133.5 194.5H181.5C182.328 194.5 183 193.828 183 193C183 192.172 182.328 191.5 181.5 191.5Z" fill="#D1D5DB"/>
<path d="M400 202H136C133.515 202 131.5 204.015 131.5 206.5V261.5C131.5 263.985 133.515 266 136 266H400C402.485 266 404.5 263.985 404.5 261.5V206.5C404.5 204.015 402.485 202 400 202Z" fill="white"/>
<path d="M194 209.5H140C139.448 209.5 139 209.948 139 210.5C139 211.052 139.448 211.5 140 211.5H194C194.552 211.5 195 211.052 195 210.5C195 209.948 194.552 209.5 194 209.5Z" fill="#E5E7EB"/>
<path d="M400 202H136C133.515 202 131.5 204.015 131.5 206.5V261.5C131.5 263.985 133.515 266 136 266H400C402.485 266 404.5 263.985 404.5 261.5V206.5C404.5 204.015 402.485 202 400 202Z" stroke="#D1D5DB"/>
<path d="M196 277.5H134C132.895 277.5 132 278.395 132 279.5V292.5C132 293.605 132.895 294.5 134 294.5H196C197.105 294.5 198 293.605 198 292.5V279.5C198 278.395 197.105 277.5 196 277.5Z" fill="#1A56DB"/>
<path d="M185 284.5H145C144.448 284.5 144 284.948 144 285.5V286.5C144 287.052 144.448 287.5 145 287.5H185C185.552 287.5 186 287.052 186 286.5V285.5C186 284.948 185.552 284.5 185 284.5Z" fill="white"/>
</g>
</g>
<defs>
<clipPath id="clip0_42_439">
<rect width="536" height="345" fill="white"/>
</clipPath>
</defs>
</svg>
