<svg width="536" height="345" viewBox="0 0 536 345" fill="none" xmlns="http://www.w3.org/2000/svg">
<g clip-path="url(#clip0_53_110)">
<mask id="mask0_53_110" style="mask-type:luminance" maskUnits="userSpaceOnUse" x="0" y="0" width="536" height="345">
<path d="M536 0H0V345H536V0Z" fill="white"/>
</mask>
<g mask="url(#mask0_53_110)">
<path d="M298 261H237C235.895 261 235 261.895 235 263V275C235 276.105 235.895 277 237 277H298C299.105 277 300 276.105 300 275V263C300 261.895 299.105 261 298 261Z" fill="#1A56DB"/>
<path d="M283 267H252C251.448 267 251 267.448 251 268V270C251 270.552 251.448 271 252 271H283C283.552 271 284 270.552 284 270V268C284 267.448 283.552 267 283 267Z" fill="white"/>
<path d="M411.737 106H123.263C115.938 106 110 109.582 110 114V232C110 236.418 115.938 240 123.263 240H411.737C419.062 240 425 236.418 425 232V114C425 109.582 419.062 106 411.737 106Z" fill="#E5E7EB"/>
<path fill-rule="evenodd" clip-rule="evenodd" d="M279.344 165.176C281.368 165.176 283.009 163.458 283.009 161.338C283.009 159.218 281.368 157.5 279.344 157.5C277.32 157.5 275.679 159.218 275.679 161.338C275.679 163.458 277.32 165.176 279.344 165.176ZM269.2 188.416H247.045C246.267 188.416 245.787 187.569 246.187 186.902L261.303 161.703C261.685 161.066 262.601 161.049 263 161.676C264.958 164.757 269.883 172.518 274.073 179.213L278.617 171.592C278.985 170.976 279.848 170.956 280.257 171.554L290.72 186.833C291.178 187.503 290.732 188.421 289.943 188.429L279.79 188.532L269.2 188.416Z" fill="#9CA3AF"/>
<path d="M340 44H196C193.515 44 191.5 46.0147 191.5 48.5C191.5 50.9853 193.515 53 196 53H340C342.485 53 344.5 50.9853 344.5 48.5C344.5 46.0147 342.485 44 340 44Z" fill="#6B7280"/>
<path d="M422.5 67H113.5C111.843 67 110.5 68.3431 110.5 70C110.5 71.6569 111.843 73 113.5 73H422.5C424.157 73 425.5 71.6569 425.5 70C425.5 68.3431 424.157 67 422.5 67Z" fill="#9CA3AF"/>
<path d="M408 79H128C126.343 79 125 80.3431 125 82C125 83.6569 126.343 85 128 85H408C409.657 85 411 83.6569 411 82C411 80.3431 409.657 79 408 79Z" fill="#9CA3AF"/>
</g>
</g>
<defs>
<clipPath id="clip0_53_110">
<rect width="536" height="345" fill="white"/>
</clipPath>
</defs>
</svg>
