<svg width="536" height="345" viewBox="0 0 536 345" fill="none" xmlns="http://www.w3.org/2000/svg">
<g clip-path="url(#clip0_51_2)">
<mask id="mask0_51_2" style="mask-type:luminance" maskUnits="userSpaceOnUse" x="0" y="0" width="536" height="345">
<path d="M536 0H0V345H536V0Z" fill="white"/>
</mask>
<g mask="url(#mask0_51_2)">
<path d="M125.852 124.602H43.1484C40.4431 124.602 38.25 126.795 38.25 129.5C38.25 132.206 40.4431 134.399 43.1484 134.399H125.852C128.557 134.399 130.75 132.206 130.75 129.5C130.75 126.795 128.557 124.602 125.852 124.602Z" fill="#A4CAFE"/>
<path d="M44.2323 128.352H43C42.4477 128.352 42 128.8 42 129.352V129.649C42 130.201 42.4477 130.649 43 130.649H44.2323C44.7846 130.649 45.2323 130.201 45.2323 129.649V129.352C45.2323 128.8 44.7846 128.352 44.2323 128.352Z" fill="#1A56DB"/>
<path d="M118.488 128.352H50.2324C49.6801 128.352 49.2324 128.8 49.2324 129.352V129.649C49.2324 130.201 49.6801 130.649 50.2324 130.649H118.488C119.04 130.649 119.488 130.201 119.488 129.649V129.352C119.488 128.8 119.04 128.352 118.488 128.352Z" fill="#1A56DB"/>
<path d="M125.852 124.602H43.1484C40.4431 124.602 38.25 126.795 38.25 129.5C38.25 132.206 40.4431 134.399 43.1484 134.399H125.852C128.557 134.399 130.75 132.206 130.75 129.5C130.75 126.795 128.557 124.602 125.852 124.602Z" stroke="#3F83F8" stroke-width="0.5"/>
<path d="M193.5 148.648H42.5C40.0147 148.648 38 150.663 38 153.148C38 155.633 40.0147 157.648 42.5 157.648H193.5C195.985 157.648 198 155.633 198 153.148C198 150.663 195.985 148.648 193.5 148.648Z" fill="#6B7280"/>
<path d="M273 166.648H41C39.3431 166.648 38 167.991 38 169.648C38 171.305 39.3431 172.648 41 172.648H273C274.657 172.648 276 171.305 276 169.648C276 167.991 274.657 166.648 273 166.648Z" fill="#9CA3AF"/>
<path d="M219 178.648H41C39.3431 178.648 38 179.991 38 181.648C38 183.305 39.3431 184.648 41 184.648H219C220.657 184.648 222 183.305 222 181.648C222 179.991 220.657 178.648 219 178.648Z" fill="#9CA3AF"/>
<path d="M101 204.648H40C38.8954 204.648 38 205.544 38 206.648V218.648C38 219.753 38.8954 220.648 40 220.648H101C102.105 220.648 103 219.753 103 218.648V206.648C103 205.544 102.105 204.648 101 204.648Z" fill="#1A56DB"/>
<path d="M86 210.648H55C54.4477 210.648 54 211.096 54 211.648V213.648C54 214.2 54.4477 214.648 55 214.648H86C86.5523 214.648 87 214.2 87 213.648V211.648C87 211.096 86.5523 210.648 86 210.648Z" fill="white"/>
<path d="M158 210.648H127C126.448 210.648 126 211.096 126 211.648V213.648C126 214.2 126.448 214.648 127 214.648H158C158.552 214.648 159 214.2 159 213.648V211.648C159 211.096 158.552 210.648 158 210.648Z" fill="#9CA3AF"/>
<path d="M173 204.648H112C110.895 204.648 110 205.544 110 206.648V218.648C110 219.753 110.895 220.648 112 220.648H173C174.105 220.648 175 219.753 175 218.648V206.648C175 205.544 174.105 204.648 173 204.648Z" stroke="#D1D5DB"/>
</g>
</g>
<defs>
<clipPath id="clip0_51_2">
<rect width="536" height="345" fill="white"/>
</clipPath>
</defs>
</svg>
