<svg width="536" height="345" viewBox="0 0 536 345" fill="none" xmlns="http://www.w3.org/2000/svg">
<path d="M340 44H196C193.515 44 191.5 46.0147 191.5 48.5C191.5 50.9853 193.515 53 196 53H340C342.485 53 344.5 50.9853 344.5 48.5C344.5 46.0147 342.485 44 340 44Z" fill="#6B7280"/>
<path d="M422.5 67H113.5C111.843 67 110.5 68.3431 110.5 70C110.5 71.6569 111.843 73 113.5 73H422.5C424.157 73 425.5 71.6569 425.5 70C425.5 68.3431 424.157 67 422.5 67Z" fill="#9CA3AF"/>
<path d="M408 79H128C126.343 79 125 80.3431 125 82C125 83.6569 126.343 85 128 85H408C409.657 85 411 83.6569 411 82C411 80.3431 409.657 79 408 79Z" fill="#9CA3AF"/>
<mask id="mask0_42_571" style="mask-type:luminance" maskUnits="userSpaceOnUse" x="80" y="117" width="376" height="184">
<path d="M447.5 117H88.5C84.0817 117 80.5 120.582 80.5 125V293C80.5 297.418 84.0817 301 88.5 301H447.5C451.918 301 455.5 297.418 455.5 293V125C455.5 120.582 451.918 117 447.5 117Z" fill="white"/>
</mask>
<g mask="url(#mask0_42_571)">
<path d="M447.5 117H88.5C84.0817 117 80.5 120.582 80.5 125V293C80.5 297.418 84.0817 301 88.5 301H447.5C451.918 301 455.5 297.418 455.5 293V125C455.5 120.582 451.918 117 447.5 117Z" fill="white"/>
<mask id="mask1_42_571" style="mask-type:luminance" maskUnits="userSpaceOnUse" x="80" y="117" width="376" height="98">
<path d="M455.5 117H80.5V215H455.5V117Z" fill="white"/>
</mask>
<g mask="url(#mask1_42_571)">
<path d="M218.5 134.5H82.5C81.3954 134.5 80.5 135.395 80.5 136.5V140.5C80.5 141.605 81.3954 142.5 82.5 142.5H218.5C219.605 142.5 220.5 141.605 220.5 140.5V136.5C220.5 135.395 219.605 134.5 218.5 134.5Z" fill="#D1D5DB"/>
<path fill-rule="evenodd" clip-rule="evenodd" d="M427 140.801C426.841 140.96 426.625 141.05 426.399 141.05C426.174 141.05 425.958 140.96 425.798 140.801L422.999 138.002L420.2 140.801C420.04 140.956 419.825 141.041 419.602 141.04C419.38 141.038 419.166 140.948 419.009 140.791C418.851 140.633 418.762 140.42 418.76 140.197C418.758 139.974 418.844 139.759 418.998 139.599L422.398 136.199C422.558 136.04 422.774 135.95 422.999 135.95C423.225 135.95 423.441 136.04 423.6 136.199L427 139.599C427.16 139.758 427.249 139.975 427.249 140.2C427.249 140.425 427.16 140.642 427 140.801Z" fill="#D1D5DB"/>
<path d="M410.5 163H81.5C80.9477 163 80.5 163.448 80.5 164V168C80.5 168.552 80.9477 169 81.5 169H410.5C411.052 169 411.5 168.552 411.5 168V164C411.5 163.448 411.052 163 410.5 163Z" fill="#E5E7EB"/>
<path d="M380.188 174H81.5C80.9477 174 80.5 174.448 80.5 175V179C80.5 179.552 80.9477 180 81.5 180H380.188C380.74 180 381.188 179.552 381.188 179V175C381.188 174.448 380.74 174 380.188 174Z" fill="#E5E7EB"/>
<path d="M394.797 185H81.5C80.9477 185 80.5 185.448 80.5 186V190C80.5 190.552 80.9477 191 81.5 191H394.797C395.349 191 395.797 190.552 395.797 190V186C395.797 185.448 395.349 185 394.797 185Z" fill="#E5E7EB"/>
<path d="M236.566 196H81.5C80.9477 196 80.5 196.448 80.5 197V201C80.5 201.552 80.9477 202 81.5 202H236.566C237.118 202 237.566 201.552 237.566 201V197C237.566 196.448 237.118 196 236.566 196Z" fill="#E5E7EB"/>
</g>
<path d="M80.5 214.5H455.5" stroke="#E5E7EB"/>
<mask id="mask2_42_571" style="mask-type:luminance" maskUnits="userSpaceOnUse" x="80" y="215" width="376" height="43">
<path d="M455.5 215H80.5V258H455.5V215Z" fill="white"/>
</mask>
<g mask="url(#mask2_42_571)">
<path d="M177.5 232.5H82.5C81.3954 232.5 80.5 233.395 80.5 234.5V238.5C80.5 239.605 81.3954 240.5 82.5 240.5H177.5C178.605 240.5 179.5 239.605 179.5 238.5V234.5C179.5 233.395 178.605 232.5 177.5 232.5Z" fill="#D1D5DB"/>
<path fill-rule="evenodd" clip-rule="evenodd" d="M418.999 234.199C419.158 234.04 419.374 233.95 419.6 233.95C419.825 233.95 420.041 234.04 420.201 234.199L423 236.998L425.799 234.199C425.877 234.118 425.971 234.053 426.075 234.008C426.178 233.964 426.29 233.94 426.403 233.939C426.516 233.939 426.628 233.96 426.732 234.003C426.837 234.045 426.931 234.109 427.011 234.188C427.091 234.268 427.154 234.363 427.197 234.468C427.24 234.572 427.261 234.684 427.26 234.797C427.259 234.91 427.236 235.021 427.191 235.125C427.147 235.229 427.082 235.322 427.001 235.401L423.601 238.801C423.441 238.96 423.225 239.05 423 239.05C422.774 239.05 422.558 238.96 422.399 238.801L418.999 235.401C418.84 235.241 418.75 235.025 418.75 234.8C418.75 234.575 418.84 234.358 418.999 234.199Z" fill="#D1D5DB"/>
</g>
<path d="M80.5 257.5H455.5" stroke="#E5E7EB"/>
<path d="M80.5 257.5H455.5" stroke="#E5E7EB"/>
<mask id="mask3_42_571" style="mask-type:luminance" maskUnits="userSpaceOnUse" x="80" y="258" width="376" height="43">
<path d="M455.5 258H80.5V301H455.5V258Z" fill="white"/>
</mask>
<g mask="url(#mask3_42_571)">
<path d="M193.5 275.5H82.5C81.3954 275.5 80.5 276.395 80.5 277.5V281.5C80.5 282.605 81.3954 283.5 82.5 283.5H193.5C194.605 283.5 195.5 282.605 195.5 281.5V277.5C195.5 276.395 194.605 275.5 193.5 275.5Z" fill="#D1D5DB"/>
<path fill-rule="evenodd" clip-rule="evenodd" d="M418.999 277.199C419.158 277.04 419.374 276.95 419.6 276.95C419.825 276.95 420.041 277.04 420.201 277.199L423 279.998L425.799 277.199C425.877 277.118 425.971 277.053 426.075 277.008C426.178 276.964 426.29 276.94 426.403 276.939C426.516 276.939 426.628 276.96 426.732 277.003C426.837 277.045 426.931 277.109 427.011 277.188C427.091 277.268 427.154 277.363 427.197 277.468C427.24 277.572 427.261 277.684 427.26 277.797C427.259 277.91 427.236 278.021 427.191 278.125C427.147 278.229 427.082 278.322 427.001 278.401L423.601 281.801C423.441 281.96 423.225 282.05 423 282.05C422.774 282.05 422.558 281.96 422.399 281.801L418.999 278.401C418.84 278.241 418.75 278.025 418.75 277.8C418.75 277.575 418.84 277.358 418.999 277.199Z" fill="#D1D5DB"/>
</g>
</g>
</svg>
