<svg width="536" height="345" viewBox="0 0 536 345" fill="none" xmlns="http://www.w3.org/2000/svg">
<path d="M497 122.75H39C34.1675 122.75 30.25 126.668 30.25 131.5V213.5C30.25 218.332 34.1675 222.25 39 222.25H497C501.832 222.25 505.75 218.332 505.75 213.5V131.5C505.75 126.668 501.832 122.75 497 122.75Z" fill="white" stroke="#D1D5DB" stroke-width="1.5"/>
<path d="M156.5 147.5H59.5C57.0147 147.5 55 149.515 55 152C55 154.485 57.0147 156.5 59.5 156.5H156.5C158.985 156.5 161 154.485 161 152C161 149.515 158.985 147.5 156.5 147.5Z" fill="#9CA3AF"/>
<path d="M210 167.5H58C56.3431 167.5 55 168.843 55 170.5C55 172.157 56.3431 173.5 58 173.5H210C211.657 173.5 213 172.157 213 170.5C213 168.843 211.657 167.5 210 167.5Z" fill="#D1D5DB"/>
<path d="M236 179.5H58C56.3431 179.5 55 180.843 55 182.5C55 184.157 56.3431 185.5 58 185.5H236C237.657 185.5 239 184.157 239 182.5C239 180.843 237.657 179.5 236 179.5Z" fill="#D1D5DB"/>
<path d="M187 191.5H58C56.3431 191.5 55 192.843 55 194.5C55 196.157 56.3431 197.5 58 197.5H187C188.657 197.5 190 196.157 190 194.5C190 192.843 188.657 191.5 187 191.5Z" fill="#D1D5DB"/>
<path d="M407.5 159.5V159H407H278C276.619 159 275.5 160.119 275.5 161.5V173.5C275.5 174.881 276.619 176 278 176H407H407.5V175.5V159.5Z" fill="white"/>
<path d="M497 123.5H39C34.5817 123.5 31 127.082 31 131.5V213.5C31 217.918 34.5817 221.5 39 221.5H497C501.418 221.5 505 217.918 505 213.5V131.5C505 127.082 501.418 123.5 497 123.5Z" stroke="#E5E7EB"/>
<path d="M416 170H355C353.895 170 353 170.895 353 172V184C353 185.105 353.895 186 355 186H416C417.105 186 418 185.105 418 184V172C418 170.895 417.105 170 416 170Z" fill="#1A56DB"/>
<path d="M401 176H370C369.448 176 369 176.448 369 177V179C369 179.552 369.448 180 370 180H401C401.552 180 402 179.552 402 179V177C402 176.448 401.552 176 401 176Z" fill="white"/>
<path d="M473 176H442C441.448 176 441 176.448 441 177V179C441 179.552 441.448 180 442 180H473C473.552 180 474 179.552 474 179V177C474 176.448 473.552 176 473 176Z" fill="#9CA3AF"/>
<path d="M488 170H427C425.895 170 425 170.895 425 172V184C425 185.105 425.895 186 427 186H488C489.105 186 490 185.105 490 184V172C490 170.895 489.105 170 488 170Z" stroke="#D1D5DB"/>
</svg>
