<svg width="536" height="345" viewBox="0 0 536 345" fill="none" xmlns="http://www.w3.org/2000/svg">
<path d="M192.5 66H87C82.5817 66 79 69.5817 79 74V150C79 154.418 82.5817 158 87 158H192.5C196.918 158 200.5 154.418 200.5 150V74C200.5 69.5817 196.918 66 192.5 66Z" fill="#F3F4F6"/>
<path fill-rule="evenodd" clip-rule="evenodd" d="M151.344 104.176C153.368 104.176 155.009 102.458 155.009 100.338C155.009 98.218 153.368 96.5 151.344 96.5C149.32 96.5 147.679 98.218 147.679 100.338C147.679 102.458 149.32 104.176 151.344 104.176ZM141.2 127.416H119.044C118.267 127.416 117.787 126.569 118.187 125.902L133.302 100.703C133.685 100.066 134.601 100.049 135 100.676C136.958 103.757 141.883 111.518 146.073 118.213L150.617 110.592C150.985 109.976 151.848 109.956 152.257 110.554L162.72 125.833C163.178 126.503 162.732 127.421 161.943 127.429L151.79 127.532L141.2 127.416Z" fill="#D1D5DB"/>
<path d="M435.5 202H330C325.582 202 322 205.582 322 210V286C322 290.418 325.582 294 330 294H435.5C439.918 294 443.5 290.418 443.5 286V210C443.5 205.582 439.918 202 435.5 202Z" fill="#F3F4F6"/>
<path fill-rule="evenodd" clip-rule="evenodd" d="M394.344 240.176C396.368 240.176 398.009 238.458 398.009 236.338C398.009 234.218 396.368 232.5 394.344 232.5C392.32 232.5 390.679 234.218 390.679 236.338C390.679 238.458 392.32 240.176 394.344 240.176ZM384.2 263.416H362.044C361.267 263.416 360.787 262.569 361.187 261.902L376.302 236.703C376.685 236.066 377.601 236.049 378 236.676C379.958 239.757 384.883 247.518 389.073 254.213L393.617 246.592C393.985 245.976 394.848 245.956 395.257 246.554L405.72 261.833C406.178 262.503 405.732 263.421 404.943 263.429L394.79 263.532L384.2 263.416Z" fill="#D1D5DB"/>
<path d="M57 74V180.669C57 182.879 58.7909 184.669 61 184.669H464C466.209 184.669 468 186.46 468 188.669V304" stroke="#9CA3AF" stroke-width="2" stroke-dasharray="9 9"/>
<rect x="48" y="52" width="18" height="18" rx="9" stroke="#9CA3AF" stroke-width="2"/>
<path d="M57.6477 58.1818V64H56.9432V58.9205H56.9091L55.4886 59.8636V59.1477L56.9432 58.1818H57.6477Z" fill="#737373"/>
<rect x="459" y="304" width="18" height="18" rx="9" stroke="#9CA3AF" stroke-width="2"/>
<path d="M466.102 316V315.489L468.023 313.386C468.248 313.14 468.434 312.926 468.58 312.744C468.725 312.561 468.833 312.388 468.903 312.227C468.975 312.064 469.011 311.894 469.011 311.716C469.011 311.511 468.962 311.334 468.864 311.185C468.767 311.035 468.634 310.92 468.466 310.838C468.297 310.757 468.108 310.716 467.898 310.716C467.674 310.716 467.479 310.762 467.312 310.855C467.148 310.946 467.02 311.074 466.929 311.239C466.84 311.403 466.795 311.597 466.795 311.818H466.125C466.125 311.477 466.204 311.178 466.361 310.92C466.518 310.663 466.732 310.462 467.003 310.318C467.276 310.174 467.581 310.102 467.92 310.102C468.261 310.102 468.563 310.174 468.827 310.318C469.09 310.462 469.296 310.656 469.446 310.901C469.596 311.145 469.67 311.417 469.67 311.716C469.67 311.93 469.632 312.139 469.554 312.344C469.478 312.546 469.346 312.773 469.156 313.023C468.969 313.271 468.708 313.574 468.375 313.932L467.068 315.33V315.375H469.773V316H466.102Z" fill="#737373"/>
<path d="M338 75H235C232.515 75 230.5 77.0147 230.5 79.5C230.5 81.9853 232.515 84 235 84H338C340.485 84 342.5 81.9853 342.5 79.5C342.5 77.0147 340.485 75 338 75Z" fill="#9CA3AF"/>
<path d="M420.5 93H233.5C231.843 93 230.5 94.3431 230.5 96C230.5 97.6569 231.843 99 233.5 99H420.5C422.157 99 423.5 97.6569 423.5 96C423.5 94.3431 422.157 93 420.5 93Z" fill="#D1D5DB"/>
<path d="M446.5 105H233.5C231.843 105 230.5 106.343 230.5 108C230.5 109.657 231.843 111 233.5 111H446.5C448.157 111 449.5 109.657 449.5 108C449.5 106.343 448.157 105 446.5 105Z" fill="#D1D5DB"/>
<path d="M357.5 117H233.5C231.843 117 230.5 118.343 230.5 120C230.5 121.657 231.843 123 233.5 123H357.5C359.157 123 360.5 121.657 360.5 120C360.5 118.343 359.157 117 357.5 117Z" fill="#D1D5DB"/>
<path d="M303.5 139H233.5C232.119 139 231 140.119 231 141.5V153.5C231 154.881 232.119 156 233.5 156H303.5C304.881 156 306 154.881 306 153.5V141.5C306 140.119 304.881 139 303.5 139Z" fill="#1A56DB" stroke="#1A56DB"/>
<path d="M288.5 145.5H248.5C247.948 145.5 247.5 145.948 247.5 146.5V148.5C247.5 149.052 247.948 149.5 248.5 149.5H288.5C289.052 149.5 289.5 149.052 289.5 148.5V146.5C289.5 145.948 289.052 145.5 288.5 145.5Z" fill="white"/>
<path d="M188.5 206H85.5C83.0147 206 81 208.015 81 210.5C81 212.985 83.0147 215 85.5 215H188.5C190.985 215 193 212.985 193 210.5C193 208.015 190.985 206 188.5 206Z" fill="#9CA3AF"/>
<path d="M271 224H84C82.3431 224 81 225.343 81 227C81 228.657 82.3431 230 84 230H271C272.657 230 274 228.657 274 227C274 225.343 272.657 224 271 224Z" fill="#D1D5DB"/>
<path d="M297 236H84C82.3431 236 81 237.343 81 239C81 240.657 82.3431 242 84 242H297C298.657 242 300 240.657 300 239C300 237.343 298.657 236 297 236Z" fill="#D1D5DB"/>
<path d="M208 248H84C82.3431 248 81 249.343 81 251C81 252.657 82.3431 254 84 254H208C209.657 254 211 252.657 211 251C211 249.343 209.657 248 208 248Z" fill="#D1D5DB"/>
<path d="M154 270H84C82.619 270 81.5 271.119 81.5 272.5V284.5C81.5 285.881 82.619 287 84 287H154C155.381 287 156.5 285.881 156.5 284.5V272.5C156.5 271.119 155.381 270 154 270Z" fill="#1A56DB" stroke="#1A56DB"/>
<path d="M139 276.5H99C98.4477 276.5 98 276.948 98 277.5V279.5C98 280.052 98.4477 280.5 99 280.5H139C139.552 280.5 140 280.052 140 279.5V277.5C140 276.948 139.552 276.5 139 276.5Z" fill="white"/>
<path d="M197.5 26H53.5C51.0147 26 49 28.0147 49 30.5C49 32.9853 51.0147 35 53.5 35H197.5C199.985 35 202 32.9853 202 30.5C202 28.0147 199.985 26 197.5 26Z" fill="#4B5563"/>
</svg>
