<svg width="536" height="345" viewBox="0 0 536 345" fill="none" xmlns="http://www.w3.org/2000/svg">
<path d="M176.376 78H30.5C28.0147 78 26 80.0147 26 82.5C26 84.9853 28.0147 87 30.5 87H176.376C178.861 87 180.876 84.9853 180.876 82.5C180.876 80.0147 178.861 78 176.376 78Z" fill="#6B7280"/>
<path d="M191.004 99H27.996C26.8936 99 26 100.343 26 102C26 103.657 26.8936 105 27.996 105H191.004C192.106 105 193 103.657 193 102C193 100.343 192.106 99 191.004 99Z" fill="#9CA3AF"/>
<path d="M163.921 112H28.0792C26.9309 112 26 113.343 26 115C26 116.657 26.9309 118 28.0792 118H163.921C165.069 118 166 116.657 166 115C166 113.343 165.069 112 163.921 112Z" fill="#9CA3AF"/>
<path d="M253 74H235C232.239 74 230 76.2386 230 79V97C230 99.7614 232.239 102 235 102H253C255.761 102 258 99.7614 258 97V79C258 76.2386 255.761 74 253 74Z" fill="#E1EFFE"/>
<path fill-rule="evenodd" clip-rule="evenodd" d="M238.584 83.25C238.385 83.25 238.194 83.329 238.054 83.47C237.913 83.61 237.834 83.801 237.834 84C237.834 84.199 237.913 84.39 238.054 84.53C238.194 84.671 238.385 84.75 238.584 84.75V90.75C238.584 91.148 238.742 91.529 239.023 91.811C239.305 92.092 239.686 92.25 240.084 92.25H242.023L241.054 93.22C240.982 93.289 240.925 93.372 240.886 93.463C240.846 93.555 240.826 93.653 240.825 93.753C240.824 93.852 240.843 93.951 240.881 94.043C240.918 94.135 240.974 94.219 241.044 94.29C241.115 94.36 241.199 94.416 241.291 94.453C241.383 94.491 241.482 94.51 241.581 94.509C241.681 94.508 241.779 94.488 241.871 94.448C241.962 94.409 242.045 94.352 242.114 94.28L243.834 92.56L245.554 94.28C245.695 94.417 245.885 94.492 246.081 94.491C246.278 94.489 246.466 94.41 246.605 94.271C246.744 94.132 246.823 93.944 246.825 93.747C246.826 93.551 246.751 93.361 246.614 93.22L245.644 92.25H247.584C247.982 92.25 248.363 92.092 248.645 91.811C248.926 91.529 249.084 91.148 249.084 90.75V84.75C249.283 84.75 249.474 84.671 249.614 84.53C249.755 84.39 249.834 84.199 249.834 84C249.834 83.801 249.755 83.61 249.614 83.47C249.474 83.329 249.283 83.25 249.084 83.25H238.584ZM247.364 86.78C247.501 86.639 247.576 86.449 247.575 86.253C247.573 86.056 247.494 85.868 247.355 85.729C247.216 85.59 247.028 85.511 246.831 85.509C246.635 85.508 246.445 85.583 246.304 85.72L243.834 88.189L242.864 87.22C242.724 87.079 242.533 87 242.334 87C242.135 87 241.944 87.079 241.804 87.22L240.304 88.72C240.232 88.789 240.175 88.872 240.136 88.963C240.096 89.055 240.076 89.153 240.075 89.253C240.074 89.352 240.093 89.451 240.131 89.543C240.168 89.635 240.224 89.719 240.294 89.79C240.365 89.86 240.449 89.916 240.541 89.953C240.633 89.991 240.732 90.01 240.831 90.009C240.931 90.008 241.029 89.988 241.121 89.948C241.212 89.909 241.295 89.852 241.364 89.78L242.334 88.81L243.304 89.78C243.444 89.921 243.635 90 243.834 90C244.033 90 244.224 89.921 244.364 89.78L247.364 86.78Z" fill="#1C64F2"/>
<path d="M298.5 113H232.5C231.119 113 230 114.119 230 115.5C230 116.881 231.119 118 232.5 118H298.5C299.881 118 301 116.881 301 115.5C301 114.119 299.881 113 298.5 113Z" fill="#9CA3AF"/>
<path d="M340 125H232C230.895 125 230 125.895 230 127C230 128.105 230.895 129 232 129H340C341.105 129 342 128.105 342 127C342 125.895 341.105 125 340 125Z" fill="#D1D5DB"/>
<path d="M354 134H232C230.895 134 230 134.895 230 136C230 137.105 230.895 138 232 138H354C355.105 138 356 137.105 356 136C356 134.895 355.105 134 354 134Z" fill="#D1D5DB"/>
<path d="M317 143H232C230.895 143 230 143.895 230 145C230 146.105 230.895 147 232 147H317C318.105 147 319 146.105 319 145C319 143.895 318.105 143 317 143Z" fill="#D1D5DB"/>
<path d="M403 75H385C382.239 75 380 77.2386 380 80V98C380 100.761 382.239 103 385 103H403C405.761 103 408 100.761 408 98V80C408 77.2386 405.761 75 403 75Z" fill="#E1EFFE"/>
<path fill-rule="evenodd" clip-rule="evenodd" d="M391.5 86.5V85.75C391.5 85.153 391.737 84.581 392.159 84.159C392.581 83.737 393.153 83.5 393.75 83.5H395.25C395.847 83.5 396.419 83.737 396.841 84.159C397.263 84.581 397.5 85.153 397.5 85.75V86.5H399C399.398 86.5 399.779 86.658 400.061 86.939C400.342 87.221 400.5 87.602 400.5 88V90.677C398.58 91.389 396.548 91.752 394.5 91.75C392.452 91.752 390.42 91.389 388.5 90.677V88C388.5 87.602 388.658 87.221 388.939 86.939C389.221 86.658 389.602 86.5 390 86.5H391.5ZM393 85.75C393 85.551 393.079 85.36 393.22 85.22C393.36 85.079 393.551 85 393.75 85H395.25C395.449 85 395.64 85.079 395.78 85.22C395.921 85.36 396 85.551 396 85.75V86.5H393V85.75ZM393.75 89.5C393.75 89.301 393.829 89.11 393.97 88.97C394.11 88.829 394.301 88.75 394.5 88.75H394.508C394.706 88.75 394.897 88.829 395.038 88.97C395.178 89.11 395.258 89.301 395.258 89.5C395.258 89.699 395.178 89.89 395.038 90.03C394.897 90.171 394.706 90.25 394.508 90.25H394.5C394.301 90.25 394.11 90.171 393.97 90.03C393.829 89.89 393.75 89.699 393.75 89.5Z" fill="#1C64F2"/>
<path d="M388 92.269V94C388 94.398 388.158 94.779 388.439 95.061C388.721 95.342 389.102 95.5 389.5 95.5H398.5C398.898 95.5 399.279 95.342 399.561 95.061C399.842 94.779 400 94.398 400 94V92.269C398.067 92.921 396.04 93.252 394 93.25C391.903 93.25 389.885 92.905 388 92.269Z" fill="#1C64F2"/>
<path d="M448.5 113H382.5C381.119 113 380 114.119 380 115.5C380 116.881 381.119 118 382.5 118H448.5C449.881 118 451 116.881 451 115.5C451 114.119 449.881 113 448.5 113Z" fill="#9CA3AF"/>
<path d="M490 125H382C380.895 125 380 125.895 380 127C380 128.105 380.895 129 382 129H490C491.105 129 492 128.105 492 127C492 125.895 491.105 125 490 125Z" fill="#D1D5DB"/>
<path d="M504 134H382C380.895 134 380 134.895 380 136C380 137.105 380.895 138 382 138H504C505.105 138 506 137.105 506 136C506 134.895 505.105 134 504 134Z" fill="#D1D5DB"/>
<path d="M467 143H382C380.895 143 380 143.895 380 145C380 146.105 380.895 147 382 147H467C468.105 147 469 146.105 469 145C469 143.895 468.105 143 467 143Z" fill="#D1D5DB"/>
<path d="M253 179H235C232.239 179 230 181.239 230 184V202C230 204.761 232.239 207 235 207H253C255.761 207 258 204.761 258 202V184C258 181.239 255.761 179 253 179Z" fill="#E1EFFE"/>
<path d="M291.747 190.934C291.871 190.852 292.024 190.778 292.2 190.721V192.079C292.04 192.029 291.888 191.957 291.747 191.866C291.456 191.672 291.4 191.491 291.4 191.4C291.4 191.309 291.456 191.128 291.747 190.934ZM293.8 195.279V193.921C293.976 193.978 294.13 194.052 294.254 194.134C294.545 194.329 294.6 194.509 294.6 194.6C294.6 194.691 294.544 194.872 294.254 195.066C294.113 195.157 293.961 195.229 293.8 195.279Z" fill="#1C64F2"/>
<path fill-rule="evenodd" clip-rule="evenodd" d="M244.334 199.4C246.031 199.4 247.659 198.726 248.859 197.526C250.059 196.325 250.734 194.697 250.734 193C250.734 191.303 250.059 189.675 248.859 188.475C247.659 187.274 246.031 186.6 244.334 186.6C242.636 186.6 241.008 187.274 239.808 188.475C238.608 189.675 237.934 191.303 237.934 193C237.934 194.697 238.608 196.325 239.808 197.526C241.008 198.726 242.636 199.4 244.334 199.4ZM245.134 189C245.134 188.788 245.049 188.584 244.899 188.434C244.749 188.284 244.546 188.2 244.334 188.2C244.121 188.2 243.918 188.284 243.768 188.434C243.618 188.584 243.534 188.788 243.534 189V189.074C243.056 189.159 242.6 189.339 242.193 189.603C241.615 189.987 241.134 190.607 241.134 191.4C241.134 192.192 241.615 192.812 242.193 193.197C242.577 193.453 243.036 193.633 243.534 193.726V195.279C243.221 195.178 242.99 195.026 242.859 194.876C242.791 194.793 242.708 194.724 242.613 194.674C242.518 194.624 242.415 194.594 242.308 194.584C242.201 194.575 242.094 194.588 241.992 194.621C241.89 194.654 241.796 194.707 241.715 194.777C241.634 194.847 241.568 194.933 241.521 195.029C241.474 195.126 241.446 195.23 241.44 195.337C241.434 195.444 241.45 195.551 241.486 195.652C241.522 195.753 241.578 195.845 241.651 195.924C242.101 196.443 242.782 196.785 243.534 196.926V197C243.534 197.212 243.618 197.416 243.768 197.566C243.918 197.716 244.121 197.8 244.334 197.8C244.546 197.8 244.749 197.716 244.899 197.566C245.049 197.416 245.134 197.212 245.134 197V196.926C245.611 196.841 246.067 196.661 246.474 196.397C247.052 196.013 247.534 195.393 247.534 194.6C247.534 193.808 247.052 193.188 246.474 192.803C246.067 192.539 245.611 192.359 245.134 192.274V190.721C245.446 190.822 245.678 190.974 245.808 191.124C245.876 191.205 245.96 191.272 246.054 191.32C246.149 191.369 246.252 191.398 246.357 191.406C246.463 191.414 246.569 191.402 246.67 191.368C246.771 191.335 246.864 191.282 246.944 191.213C247.024 191.144 247.089 191.059 247.136 190.964C247.183 190.869 247.211 190.766 247.218 190.66C247.225 190.554 247.211 190.448 247.176 190.348C247.141 190.248 247.087 190.155 247.017 190.076C246.566 189.557 245.886 189.215 245.134 189.074V189Z" fill="#1C64F2"/>
<path d="M298.5 217H232.5C231.119 217 230 218.119 230 219.5C230 220.881 231.119 222 232.5 222H298.5C299.881 222 301 220.881 301 219.5C301 218.119 299.881 217 298.5 217Z" fill="#9CA3AF"/>
<path d="M340 229H232C230.895 229 230 229.895 230 231C230 232.105 230.895 233 232 233H340C341.105 233 342 232.105 342 231C342 229.895 341.105 229 340 229Z" fill="#D1D5DB"/>
<path d="M354 238H232C230.895 238 230 238.895 230 240C230 241.105 230.895 242 232 242H354C355.105 242 356 241.105 356 240C356 238.895 355.105 238 354 238Z" fill="#D1D5DB"/>
<path d="M317 247H232C230.895 247 230 247.895 230 249C230 250.105 230.895 251 232 251H317C318.105 251 319 250.105 319 249C319 247.895 318.105 247 317 247Z" fill="#D1D5DB"/>
<path d="M403 179H385C382.239 179 380 181.239 380 184V202C380 204.761 382.239 207 385 207H403C405.761 207 408 204.761 408 202V184C408 181.239 405.761 179 403 179Z" fill="#E1EFFE"/>
<path fill-rule="evenodd" clip-rule="evenodd" d="M395.191 187.536C394.887 186.288 393.111 186.288 392.807 187.536C392.762 187.724 392.673 187.898 392.548 188.044C392.422 188.191 392.264 188.306 392.086 188.38C391.907 188.454 391.714 188.485 391.522 188.47C391.33 188.455 391.143 188.395 390.979 188.294C389.881 187.626 388.625 188.882 389.294 189.979C389.726 190.688 389.343 191.613 388.536 191.809C387.287 192.112 387.287 193.889 388.536 194.191C388.724 194.237 388.898 194.326 389.045 194.451C389.191 194.577 389.306 194.735 389.38 194.914C389.454 195.092 389.485 195.285 389.47 195.478C389.455 195.67 389.394 195.856 389.294 196.021C388.625 197.118 389.881 198.374 390.979 197.706C391.143 197.605 391.33 197.545 391.522 197.53C391.714 197.515 391.908 197.546 392.086 197.62C392.264 197.693 392.423 197.808 392.548 197.955C392.674 198.102 392.763 198.276 392.808 198.463C393.111 199.712 394.888 199.712 395.191 198.463C395.236 198.276 395.325 198.102 395.451 197.955C395.576 197.809 395.735 197.694 395.913 197.62C396.091 197.546 396.285 197.515 396.477 197.53C396.669 197.545 396.855 197.605 397.02 197.706C398.118 198.374 399.374 197.118 398.705 196.021C398.605 195.856 398.545 195.67 398.53 195.478C398.515 195.285 398.546 195.092 398.619 194.914C398.693 194.735 398.808 194.577 398.955 194.452C399.101 194.326 399.275 194.237 399.463 194.191C400.711 193.888 400.711 192.111 399.463 191.809C399.275 191.763 399.101 191.674 398.954 191.549C398.808 191.423 398.693 191.265 398.619 191.087C398.545 190.908 398.514 190.715 398.529 190.523C398.544 190.33 398.604 190.144 398.705 189.979C399.374 188.882 398.118 187.626 397.02 188.294C396.855 188.395 396.669 188.455 396.477 188.47C396.284 188.485 396.091 188.455 395.913 188.381C395.735 188.307 395.576 188.192 395.451 188.045C395.325 187.899 395.236 187.724 395.191 187.537V187.536ZM393.999 195.4C394.636 195.4 395.246 195.147 395.696 194.697C396.147 194.247 396.399 193.637 396.399 193C396.399 192.364 396.147 191.753 395.696 191.303C395.246 190.853 394.636 190.6 393.999 190.6C393.363 190.6 392.752 190.853 392.302 191.303C391.852 191.753 391.599 192.364 391.599 193C391.599 193.637 391.852 194.247 392.302 194.697C392.752 195.147 393.363 195.4 393.999 195.4Z" fill="#1C64F2"/>
<path d="M448.5 217H382.5C381.119 217 380 218.119 380 219.5C380 220.881 381.119 222 382.5 222H448.5C449.881 222 451 220.881 451 219.5C451 218.119 449.881 217 448.5 217Z" fill="#9CA3AF"/>
<path d="M490 229H382C380.895 229 380 229.895 380 231C380 232.105 380.895 233 382 233H490C491.105 233 492 232.105 492 231C492 229.895 491.105 229 490 229Z" fill="#D1D5DB"/>
<path d="M504 238H382C380.895 238 380 238.895 380 240C380 241.105 380.895 242 382 242H504C505.105 242 506 241.105 506 240C506 238.895 505.105 238 504 238Z" fill="#D1D5DB"/>
<path d="M467 247H382C380.895 247 380 247.895 380 249C380 250.105 380.895 251 382 251H467C468.105 251 469 250.105 469 249C469 247.895 468.105 247 467 247Z" fill="#D1D5DB"/>
<path d="M89 153H28C26.8954 153 26 153.895 26 155V167C26 168.105 26.8954 169 28 169H89C90.1046 169 91 168.105 91 167V155C91 153.895 90.1046 153 89 153Z" fill="#1A56DB"/>
<path d="M74 159H43C42.4477 159 42 159.448 42 160V162C42 162.552 42.4477 163 43 163H74C74.5523 163 75 162.552 75 162V160C75 159.448 74.5523 159 74 159Z" fill="white"/>
<path d="M146 159H115C114.448 159 114 159.448 114 160V162C114 162.552 114.448 163 115 163H146C146.552 163 147 162.552 147 162V160C147 159.448 146.552 159 146 159Z" fill="#9CA3AF"/>
<path d="M161 153H100C98.8954 153 98 153.895 98 155V167C98 168.105 98.8954 169 100 169H161C162.105 169 163 168.105 163 167V155C163 153.895 162.105 153 161 153Z" stroke="#D1D5DB"/>
</svg>
