<svg width="536" height="345" viewBox="0 0 536 345" fill="none" xmlns="http://www.w3.org/2000/svg">
<path d="M254 46.7051H185C182.791 46.7051 181 48.4959 181 50.7051C181 52.9142 182.791 54.7051 185 54.7051H254C256.209 54.7051 258 52.9142 258 50.7051C258 48.4959 256.209 46.7051 254 46.7051Z" fill="#9CA3AF"/>
<path d="M351 46.7051H292C289.791 46.7051 288 48.4959 288 50.7051C288 52.9142 289.791 54.7051 292 54.7051H351C353.209 54.7051 355 52.9142 355 50.7051C355 48.4959 353.209 46.7051 351 46.7051Z" fill="#9CA3AF"/>
<path d="M107.781 88.2051C107.781 87.7909 107.445 87.4551 107.031 87.4551C106.617 87.4551 106.281 87.7909 106.281 88.2051V306.795C106.281 307.209 106.617 307.545 107.031 307.545C107.445 307.545 107.781 307.209 107.781 306.795V88.2051Z" fill="#D1D5DB" stroke="#D1D5DB" stroke-width="1.5"/>
<path d="M107.031 117.828C109.24 117.828 111.031 116.037 111.031 113.828C111.031 111.619 109.24 109.828 107.031 109.828C104.822 109.828 103.031 111.619 103.031 113.828C103.031 116.037 104.822 117.828 107.031 117.828Z" fill="#D1D5DB" stroke="white"/>
<path d="M107.031 197.401C109.24 197.401 111.031 195.61 111.031 193.401C111.031 191.192 109.24 189.401 107.031 189.401C104.822 189.401 103.031 191.192 103.031 193.401C103.031 195.61 104.822 197.401 107.031 197.401Z" fill="#D1D5DB" stroke="white"/>
<path d="M107.031 276.974C109.24 276.974 111.031 275.183 111.031 272.974C111.031 270.765 109.24 268.974 107.031 268.974C104.822 268.974 103.031 270.765 103.031 272.974C103.031 275.183 104.822 276.974 107.031 276.974Z" fill="#D1D5DB" stroke="white"/>
<path d="M189.145 111.203H121.441C120.336 111.203 119.441 112.099 119.441 113.203C119.441 114.308 120.336 115.203 121.441 115.203H189.145C190.25 115.203 191.145 114.308 191.145 113.203C191.145 112.099 190.25 111.203 189.145 111.203Z" fill="#9CA3AF"/>
<path d="M164.202 118.464H120.941C120.113 118.464 119.441 119.136 119.441 119.964C119.441 120.793 120.113 121.464 120.941 121.464H164.202C165.03 121.464 165.702 120.793 165.702 119.964C165.702 119.136 165.03 118.464 164.202 118.464Z" fill="#D1D5DB"/>
<path d="M244.497 127.386H120.941C120.113 127.386 119.441 128.058 119.441 128.886C119.441 129.714 120.113 130.386 120.941 130.386H244.497C245.325 130.386 245.997 129.714 245.997 128.886C245.997 128.058 245.325 127.386 244.497 127.386Z" fill="#D1D5DB"/>
<path d="M239.871 133.386H120.941C120.113 133.386 119.441 134.058 119.441 134.886C119.441 135.714 120.113 136.386 120.941 136.386H239.871C240.699 136.386 241.371 135.714 241.371 134.886C241.371 134.058 240.699 133.386 239.871 133.386Z" fill="#D1D5DB"/>
<path d="M220.045 139.386H120.941C120.113 139.386 119.441 140.058 119.441 140.886C119.441 141.714 120.113 142.386 120.941 142.386H220.045C220.873 142.386 221.545 141.714 221.545 140.886C221.545 140.058 220.873 139.386 220.045 139.386Z" fill="#D1D5DB"/>
<path d="M189.145 191.098H121.441C120.336 191.098 119.441 191.993 119.441 193.098C119.441 194.202 120.336 195.098 121.441 195.098H189.145C190.25 195.098 191.145 194.202 191.145 193.098C191.145 191.993 190.25 191.098 189.145 191.098Z" fill="#9CA3AF"/>
<path d="M164.202 198.359H120.941C120.113 198.359 119.441 199.03 119.441 199.859C119.441 200.687 120.113 201.359 120.941 201.359H164.202C165.03 201.359 165.702 200.687 165.702 199.859C165.702 199.03 165.03 198.359 164.202 198.359Z" fill="#D1D5DB"/>
<path d="M220.5 207H120.5C119.672 207 119 207.672 119 208.5C119 209.328 119.672 210 120.5 210H220.5C221.328 210 222 209.328 222 208.5C222 207.672 221.328 207 220.5 207Z" fill="#D1D5DB"/>
<path d="M216.5 213H120.5C119.672 213 119 213.672 119 214.5C119 215.328 119.672 216 120.5 216H216.5C217.328 216 218 215.328 218 214.5C218 213.672 217.328 213 216.5 213Z" fill="#D1D5DB"/>
<path d="M189.013 270.112H121.309C120.204 270.112 119.309 271.007 119.309 272.112C119.309 273.217 120.204 274.112 121.309 274.112H189.013C190.118 274.112 191.013 273.217 191.013 272.112C191.013 271.007 190.118 270.112 189.013 270.112Z" fill="#9CA3AF"/>
<path d="M164.07 277.373H120.809C119.981 277.373 119.309 278.045 119.309 278.873C119.309 279.701 119.981 280.373 120.809 280.373H164.07C164.898 280.373 165.57 279.701 165.57 278.873C165.57 278.045 164.898 277.373 164.07 277.373Z" fill="#D1D5DB"/>
<path d="M244.365 286.295H120.809C119.981 286.295 119.309 286.966 119.309 287.795C119.309 288.623 119.981 289.295 120.809 289.295H244.365C245.193 289.295 245.865 288.623 245.865 287.795C245.865 286.966 245.193 286.295 244.365 286.295Z" fill="#D1D5DB"/>
<path d="M216.5 292H120.5C119.672 292 119 292.672 119 293.5C119 294.328 119.672 295 120.5 295H216.5C217.328 295 218 294.328 218 293.5C218 292.672 217.328 292 216.5 292Z" fill="#D1D5DB"/>
<path d="M194.5 298H120.5C119.672 298 119 298.672 119 299.5C119 300.328 119.672 301 120.5 301H194.5C195.328 301 196 300.328 196 299.5C196 298.672 195.328 298 194.5 298Z" fill="#D1D5DB"/>
<path d="M295.5 88.2051C295.5 87.6528 295.052 87.2051 294.5 87.2051C293.948 87.2051 293.5 87.6528 293.5 88.2051V306.795C293.5 307.347 293.948 307.795 294.5 307.795C295.052 307.795 295.5 307.347 295.5 306.795V88.2051Z" fill="#D1D5DB" stroke="#D1D5DB"/>
<path d="M294.5 117.828C296.709 117.828 298.5 116.037 298.5 113.828C298.5 111.619 296.709 109.828 294.5 109.828C292.291 109.828 290.5 111.619 290.5 113.828C290.5 116.037 292.291 117.828 294.5 117.828Z" fill="#D1D5DB" stroke="white"/>
<path d="M294.5 197.401C296.709 197.401 298.5 195.61 298.5 193.401C298.5 191.192 296.709 189.401 294.5 189.401C292.291 189.401 290.5 191.192 290.5 193.401C290.5 195.61 292.291 197.401 294.5 197.401Z" fill="#D1D5DB" stroke="white"/>
<path d="M294.5 276.974C296.709 276.974 298.5 275.183 298.5 272.974C298.5 270.765 296.709 268.974 294.5 268.974C292.291 268.974 290.5 270.765 290.5 272.974C290.5 275.183 292.291 276.974 294.5 276.974Z" fill="#D1D5DB" stroke="white"/>
<path d="M376.614 111.203H308.91C307.805 111.203 306.91 112.099 306.91 113.203C306.91 114.308 307.805 115.203 308.91 115.203H376.614C377.719 115.203 378.614 114.308 378.614 113.203C378.614 112.099 377.719 111.203 376.614 111.203Z" fill="#9CA3AF"/>
<path d="M351.671 118.464H308.41C307.582 118.464 306.91 119.136 306.91 119.964C306.91 120.793 307.582 121.464 308.41 121.464H351.671C352.499 121.464 353.171 120.793 353.171 119.964C353.171 119.136 352.499 118.464 351.671 118.464Z" fill="#D1D5DB"/>
<path d="M431.966 127.386H308.41C307.582 127.386 306.91 128.058 306.91 128.886C306.91 129.714 307.582 130.386 308.41 130.386H431.966C432.794 130.386 433.466 129.714 433.466 128.886C433.466 128.058 432.794 127.386 431.966 127.386Z" fill="#D1D5DB"/>
<path d="M383.5 133H308.5C307.672 133 307 133.672 307 134.5C307 135.328 307.672 136 308.5 136H383.5C384.328 136 385 135.328 385 134.5C385 133.672 384.328 133 383.5 133Z" fill="#D1D5DB"/>
<path d="M376.614 191.098H308.91C307.805 191.098 306.91 191.993 306.91 193.098C306.91 194.202 307.805 195.098 308.91 195.098H376.614C377.719 195.098 378.614 194.202 378.614 193.098C378.614 191.993 377.719 191.098 376.614 191.098Z" fill="#9CA3AF"/>
<path d="M351.671 198.359H308.41C307.582 198.359 306.91 199.03 306.91 199.859C306.91 200.687 307.582 201.359 308.41 201.359H351.671C352.499 201.359 353.171 200.687 353.171 199.859C353.171 199.03 352.499 198.359 351.671 198.359Z" fill="#D1D5DB"/>
<path d="M413.5 207H308.5C307.672 207 307 207.672 307 208.5C307 209.328 307.672 210 308.5 210H413.5C414.328 210 415 209.328 415 208.5C415 207.672 414.328 207 413.5 207Z" fill="#D1D5DB"/>
<path d="M401.5 213H308.5C307.672 213 307 213.672 307 214.5C307 215.328 307.672 216 308.5 216H401.5C402.328 216 403 215.328 403 214.5C403 213.672 402.328 213 401.5 213Z" fill="#D1D5DB"/>
<path d="M410.5 219H308.5C307.672 219 307 219.672 307 220.5C307 221.328 307.672 222 308.5 222H410.5C411.328 222 412 221.328 412 220.5C412 219.672 411.328 219 410.5 219Z" fill="#D1D5DB"/>
<path d="M385.5 225H308.5C307.672 225 307 225.672 307 226.5C307 227.328 307.672 228 308.5 228H385.5C386.328 228 387 227.328 387 226.5C387 225.672 386.328 225 385.5 225Z" fill="#D1D5DB"/>
<path d="M376.481 270.112H308.777C307.672 270.112 306.777 271.007 306.777 272.112C306.777 273.217 307.672 274.112 308.777 274.112H376.481C377.586 274.112 378.481 273.217 378.481 272.112C378.481 271.007 377.586 270.112 376.481 270.112Z" fill="#9CA3AF"/>
<path d="M351.538 277.373H308.277C307.449 277.373 306.777 278.045 306.777 278.873C306.777 279.701 307.449 280.373 308.277 280.373H351.538C352.366 280.373 353.038 279.701 353.038 278.873C353.038 278.045 352.366 277.373 351.538 277.373Z" fill="#D1D5DB"/>
<path d="M431.833 286.295H308.277C307.449 286.295 306.777 286.966 306.777 287.795C306.777 288.623 307.449 289.295 308.277 289.295H431.833C432.661 289.295 433.333 288.623 433.333 287.795C433.333 286.966 432.661 286.295 431.833 286.295Z" fill="#D1D5DB"/>
<path d="M427.207 292.295H308.277C307.449 292.295 306.777 292.966 306.777 293.795C306.777 294.623 307.449 295.295 308.277 295.295H427.207C428.035 295.295 428.707 294.623 428.707 293.795C428.707 292.966 428.035 292.295 427.207 292.295Z" fill="#D1D5DB"/>
</svg>
