<svg width="536" height="345" viewBox="0 0 536 345" fill="none" xmlns="http://www.w3.org/2000/svg">
<path d="M351.5 44.5H76.5C74.0147 44.5 72 46.5147 72 49C72 51.4853 74.0147 53.5 76.5 53.5H351.5C353.985 53.5 356 51.4853 356 49C356 46.5147 353.985 44.5 351.5 44.5Z" fill="#6B7280"/>
<path d="M298.5 65.5H75.5C73.567 65.5 72 67.067 72 69C72 70.933 73.567 72.5 75.5 72.5H298.5C300.433 72.5 302 70.933 302 69C302 67.067 300.433 65.5 298.5 65.5Z" fill="#9CA3AF"/>
<path d="M277.5 78.5H75.5C73.567 78.5 72 80.067 72 82C72 83.933 73.567 85.5 75.5 85.5H277.5C279.433 85.5 281 83.933 281 82C281 80.067 279.433 78.5 277.5 78.5Z" fill="#9CA3AF"/>
<path d="M355.5 105.5H74.5C73.1193 105.5 72 106.619 72 108C72 109.381 73.1193 110.5 74.5 110.5H355.5C356.881 110.5 358 109.381 358 108C358 106.619 356.881 105.5 355.5 105.5Z" fill="#D1D5DB"/>
<path d="M344.5 115.5H74.5C73.1193 115.5 72 116.619 72 118C72 119.381 73.1193 120.5 74.5 120.5H344.5C345.881 120.5 347 119.381 347 118C347 116.619 345.881 115.5 344.5 115.5Z" fill="#D1D5DB"/>
<path d="M156.833 125.5H74.5C73.1193 125.5 72 126.619 72 128C72 129.381 73.1193 130.5 74.5 130.5H156.833C158.214 130.5 159.333 129.381 159.333 128C159.333 126.619 158.214 125.5 156.833 125.5Z" fill="#D1D5DB"/>
<path d="M256.165 125.5H173.832C172.451 125.5 171.332 126.619 171.332 128C171.332 129.381 172.451 130.5 173.832 130.5H256.165C257.546 130.5 258.665 129.381 258.665 128C258.665 126.619 257.546 125.5 256.165 125.5Z" fill="#E5E7EB"/>
<path d="M355.501 125.5H273.168C271.787 125.5 270.668 126.619 270.668 128C270.668 129.381 271.787 130.5 273.168 130.5H355.501C356.882 130.5 358.001 129.381 358.001 128C358.001 126.619 356.882 125.5 355.501 125.5Z" fill="#D1D5DB"/>
<path d="M355.5 135.5H74.5C73.1193 135.5 72 136.619 72 138C72 139.381 73.1193 140.5 74.5 140.5H355.5C356.881 140.5 358 139.381 358 138C358 136.619 356.881 135.5 355.5 135.5Z" fill="#D1D5DB"/>
<path d="M310.5 145.5H74.5C73.1193 145.5 72 146.619 72 148C72 149.381 73.1193 150.5 74.5 150.5H310.5C311.881 150.5 313 149.381 313 148C313 146.619 311.881 145.5 310.5 145.5Z" fill="#D1D5DB"/>
<path d="M147.5 155.5H74.5C73.1193 155.5 72 156.619 72 158C72 159.381 73.1193 160.5 74.5 160.5H147.5C148.881 160.5 150 159.381 150 158C150 156.619 148.881 155.5 147.5 155.5Z" fill="#D1D5DB"/>
<path d="M237.5 155.5H164.5C163.119 155.5 162 156.619 162 158C162 159.381 163.119 160.5 164.5 160.5H237.5C238.881 160.5 240 159.381 240 158C240 156.619 238.881 155.5 237.5 155.5Z" fill="#E5E7EB"/>
<path d="M356.5 155.5H254.5C253.119 155.5 252 156.619 252 158C252 159.381 253.119 160.5 254.5 160.5H356.5C357.881 160.5 359 159.381 359 158C359 156.619 357.881 155.5 356.5 155.5Z" fill="#D1D5DB"/>
<path d="M354.5 165.5H74.5C73.1193 165.5 72 166.619 72 168C72 169.381 73.1193 170.5 74.5 170.5H354.5C355.881 170.5 357 169.381 357 168C357 166.619 355.881 165.5 354.5 165.5Z" fill="#D1D5DB"/>
<path d="M355.5 185.5H74.5C73.1193 185.5 72 186.619 72 188C72 189.381 73.1193 190.5 74.5 190.5H355.5C356.881 190.5 358 189.381 358 188C358 186.619 356.881 185.5 355.5 185.5Z" fill="#D1D5DB"/>
<path d="M344.5 195.5H74.5C73.1193 195.5 72 196.619 72 198C72 199.381 73.1193 200.5 74.5 200.5H344.5C345.881 200.5 347 199.381 347 198C347 196.619 345.881 195.5 344.5 195.5Z" fill="#D1D5DB"/>
<path d="M268.5 205.5H74.5C73.1193 205.5 72 206.619 72 208C72 209.381 73.1193 210.5 74.5 210.5H268.5C269.881 210.5 271 209.381 271 208C271 206.619 269.881 205.5 268.5 205.5Z" fill="#D1D5DB"/>
<path d="M312 205.5H285.5C284.119 205.5 283 206.619 283 208C283 209.381 284.119 210.5 285.5 210.5H312C313.381 210.5 314.5 209.381 314.5 208C314.5 206.619 313.381 205.5 312 205.5Z" fill="#E5E7EB"/>
<path d="M355.5 205.5H329C327.619 205.5 326.5 206.619 326.5 208C326.5 209.381 327.619 210.5 329 210.5H355.5C356.881 210.5 358 209.381 358 208C358 206.619 356.881 205.5 355.5 205.5Z" fill="#D1D5DB"/>
<path d="M244.5 215.5H74.5C73.1193 215.5 72 216.619 72 218C72 219.381 73.1193 220.5 74.5 220.5H244.5C245.881 220.5 247 219.381 247 218C247 216.619 245.881 215.5 244.5 215.5Z" fill="#E5E7EB"/>
<path d="M355.5 215.5H261.5C260.119 215.5 259 216.619 259 218C259 219.381 260.119 220.5 261.5 220.5H355.5C356.881 220.5 358 219.381 358 218C358 216.619 356.881 215.5 355.5 215.5Z" fill="#D1D5DB"/>
<path d="M351.5 225.5H74.5C73.1193 225.5 72 226.619 72 228C72 229.381 73.1193 230.5 74.5 230.5H351.5C352.881 230.5 354 229.381 354 228C354 226.619 352.881 225.5 351.5 225.5Z" fill="#D1D5DB"/>
<path d="M355.5 235.5H74.5C73.1193 235.5 72 236.619 72 238C72 239.381 73.1193 240.5 74.5 240.5H355.5C356.881 240.5 358 239.381 358 238C358 236.619 356.881 235.5 355.5 235.5Z" fill="#D1D5DB"/>
<path d="M310.5 245.5H74.5C73.1193 245.5 72 246.619 72 248C72 249.381 73.1193 250.5 74.5 250.5H310.5C311.881 250.5 313 249.381 313 248C313 246.619 311.881 245.5 310.5 245.5Z" fill="#D1D5DB"/>
<path d="M268.5 255.5H74.5C73.1193 255.5 72 256.619 72 258C72 259.381 73.1193 260.5 74.5 260.5H268.5C269.881 260.5 271 259.381 271 258C271 256.619 269.881 255.5 268.5 255.5Z" fill="#D1D5DB"/>
<path d="M312 255.5H285.5C284.119 255.5 283 256.619 283 258C283 259.381 284.119 260.5 285.5 260.5H312C313.381 260.5 314.5 259.381 314.5 258C314.5 256.619 313.381 255.5 312 255.5Z" fill="#E5E7EB"/>
<path d="M355.5 255.5H329C327.619 255.5 326.5 256.619 326.5 258C326.5 259.381 327.619 260.5 329 260.5H355.5C356.881 260.5 358 259.381 358 258C358 256.619 356.881 255.5 355.5 255.5Z" fill="#D1D5DB"/>
<path d="M147.5 265.5H74.5C73.1193 265.5 72 266.619 72 268C72 269.381 73.1193 270.5 74.5 270.5H147.5C148.881 270.5 150 269.381 150 268C150 266.619 148.881 265.5 147.5 265.5Z" fill="#D1D5DB"/>
<path d="M237.5 265.5H164.5C163.119 265.5 162 266.619 162 268C162 269.381 163.119 270.5 164.5 270.5H237.5C238.881 270.5 240 269.381 240 268C240 266.619 238.881 265.5 237.5 265.5Z" fill="#E5E7EB"/>
<path d="M355.5 265.5H254.5C253.119 265.5 252 266.619 252 268C252 269.381 253.119 270.5 254.5 270.5H355.5C356.881 270.5 358 269.381 358 268C358 266.619 356.881 265.5 355.5 265.5Z" fill="#D1D5DB"/>
<path d="M345.5 275.5H74.5C73.1193 275.5 72 276.619 72 278C72 279.381 73.1193 280.5 74.5 280.5H345.5C346.881 280.5 348 279.381 348 278C348 276.619 346.881 275.5 345.5 275.5Z" fill="#D1D5DB"/>
<path d="M351.5 285.5H74.5C73.1193 285.5 72 286.619 72 288C72 289.381 73.1193 290.5 74.5 290.5H351.5C352.881 290.5 354 289.381 354 288C354 286.619 352.881 285.5 351.5 285.5Z" fill="#D1D5DB"/>
<path d="M147.5 295.5H74.5C73.1193 295.5 72 296.619 72 298C72 299.381 73.1193 300.5 74.5 300.5H147.5C148.881 300.5 150 299.381 150 298C150 296.619 148.881 295.5 147.5 295.5Z" fill="#D1D5DB"/>
<path d="M237.5 295.5H164.5C163.119 295.5 162 296.619 162 298C162 299.381 163.119 300.5 164.5 300.5H237.5C238.881 300.5 240 299.381 240 298C240 296.619 238.881 295.5 237.5 295.5Z" fill="#E5E7EB"/>
<path d="M355.5 295.5H254.5C253.119 295.5 252 296.619 252 298C252 299.381 253.119 300.5 254.5 300.5H355.5C356.881 300.5 358 299.381 358 298C358 296.619 356.881 295.5 355.5 295.5Z" fill="#D1D5DB"/>
<path d="M456 44.5H392C387.582 44.5 384 48.0817 384 52.5V95.5C384 99.9183 387.582 103.5 392 103.5H456C460.418 103.5 464 99.9183 464 95.5V52.5C464 48.0817 460.418 44.5 456 44.5Z" fill="white"/>
<path d="M429 44.5H386C384.895 44.5 384 45.3954 384 46.5C384 47.6046 384.895 48.5 386 48.5H429C430.105 48.5 431 47.6046 431 46.5C431 45.3954 430.105 44.5 429 44.5Z" fill="#9CA3AF"/>
<path d="M460.5 52.5H385.5C384.672 52.5 384 53.1716 384 54C384 54.8284 384.672 55.5 385.5 55.5H460.5C461.328 55.5 462 54.8284 462 54C462 53.1716 461.328 52.5 460.5 52.5Z" fill="#D1D5DB"/>
<path d="M453.5 58.5H385.5C384.672 58.5 384 59.1716 384 60C384 60.8284 384.672 61.5 385.5 61.5H453.5C454.328 61.5 455 60.8284 455 60C455 59.1716 454.328 58.5 453.5 58.5Z" fill="#D1D5DB"/>
<path d="M453.5 64.5H385.5C384.672 64.5 384 65.1716 384 66C384 66.8284 384.672 67.5 385.5 67.5H453.5C454.328 67.5 455 66.8284 455 66C455 65.1716 454.328 64.5 453.5 64.5Z" fill="#D1D5DB"/>
<path d="M460 73H386C384.619 73 383.5 74.1193 383.5 75.5V83.5C383.5 84.8807 384.619 86 386 86H460C461.381 86 462.5 84.8807 462.5 83.5V75.5C462.5 74.1193 461.381 73 460 73Z" fill="white"/>
<path d="M444 78.5H390C389.448 78.5 389 78.9477 389 79.5C389 80.0523 389.448 80.5 390 80.5H444C444.552 80.5 445 80.0523 445 79.5C445 78.9477 444.552 78.5 444 78.5Z" fill="#E5E7EB"/>
<path d="M460 73H386C384.619 73 383.5 74.1193 383.5 75.5V83.5C383.5 84.8807 384.619 86 386 86H460C461.381 86 462.5 84.8807 462.5 83.5V75.5C462.5 74.1193 461.381 73 460 73Z" stroke="#D1D5DB"/>
<path d="M462 92.5H386C384.895 92.5 384 93.3954 384 94.5V101.5C384 102.605 384.895 103.5 386 103.5H462C463.105 103.5 464 102.605 464 101.5V94.5C464 93.3954 463.105 92.5 462 92.5Z" fill="#1A56DB"/>
<path d="M446.5 96.5H401.5C400.948 96.5 400.5 96.9477 400.5 97.5V98.5C400.5 99.0523 400.948 99.5 401.5 99.5H446.5C447.052 99.5 447.5 99.0523 447.5 98.5V97.5C447.5 96.9477 447.052 96.5 446.5 96.5Z" fill="white"/>
<path d="M453.704 117.5H386C384.895 117.5 384 118.395 384 119.5C384 120.605 384.895 121.5 386 121.5H453.704C454.809 121.5 455.704 120.605 455.704 119.5C455.704 118.395 454.809 117.5 453.704 117.5Z" fill="#9CA3AF"/>
<path d="M428.761 125.5H385.5C384.672 125.5 384 126.172 384 127C384 127.828 384.672 128.5 385.5 128.5H428.761C429.589 128.5 430.261 127.828 430.261 127C430.261 126.172 429.589 125.5 428.761 125.5Z" fill="#D1D5DB"/>
<path d="M462.5 132.5H385.5C384.672 132.5 384 133.172 384 134C384 134.828 384.672 135.5 385.5 135.5H462.5C463.328 135.5 464 134.828 464 134C464 133.172 463.328 132.5 462.5 132.5Z" fill="#D1D5DB"/>
<path d="M459.5 139.5H385.5C384.672 139.5 384 140.172 384 141C384 141.828 384.672 142.5 385.5 142.5H459.5C460.328 142.5 461 141.828 461 141C461 140.172 460.328 139.5 459.5 139.5Z" fill="#D1D5DB"/>
<path d="M438 154.5H386C384.895 154.5 384 155.395 384 156.5C384 157.605 384.895 158.5 386 158.5H438C439.105 158.5 440 157.605 440 156.5C440 155.395 439.105 154.5 438 154.5Z" fill="#9CA3AF"/>
<path d="M428.761 162.5H385.5C384.672 162.5 384 163.172 384 164C384 164.828 384.672 165.5 385.5 165.5H428.761C429.589 165.5 430.261 164.828 430.261 164C430.261 163.172 429.589 162.5 428.761 162.5Z" fill="#D1D5DB"/>
<path d="M462.5 169.5H385.5C384.672 169.5 384 170.172 384 171C384 171.828 384.672 172.5 385.5 172.5H462.5C463.328 172.5 464 171.828 464 171C464 170.172 463.328 169.5 462.5 169.5Z" fill="#D1D5DB"/>
<path d="M459.5 176.5H385.5C384.672 176.5 384 177.172 384 178C384 178.828 384.672 179.5 385.5 179.5H459.5C460.328 179.5 461 178.828 461 178C461 177.172 460.328 176.5 459.5 176.5Z" fill="#D1D5DB"/>
<path d="M447.5 183.5H385.5C384.672 183.5 384 184.172 384 185C384 185.828 384.672 186.5 385.5 186.5H447.5C448.328 186.5 449 185.828 449 185C449 184.172 448.328 183.5 447.5 183.5Z" fill="#D1D5DB"/>
<path d="M430 198.5H386C384.895 198.5 384 199.395 384 200.5C384 201.605 384.895 202.5 386 202.5H430C431.105 202.5 432 201.605 432 200.5C432 199.395 431.105 198.5 430 198.5Z" fill="#9CA3AF"/>
<path d="M428.761 206.5H385.5C384.672 206.5 384 207.172 384 208C384 208.828 384.672 209.5 385.5 209.5H428.761C429.589 209.5 430.261 208.828 430.261 208C430.261 207.172 429.589 206.5 428.761 206.5Z" fill="#D1D5DB"/>
<path d="M462.5 213.5H385.5C384.672 213.5 384 214.172 384 215C384 215.828 384.672 216.5 385.5 216.5H462.5C463.328 216.5 464 215.828 464 215C464 214.172 463.328 213.5 462.5 213.5Z" fill="#D1D5DB"/>
<path d="M459.5 220.5H385.5C384.672 220.5 384 221.172 384 222C384 222.828 384.672 223.5 385.5 223.5H459.5C460.328 223.5 461 222.828 461 222C461 221.172 460.328 220.5 459.5 220.5Z" fill="#D1D5DB"/>
<path d="M447.5 227.5H385.5C384.672 227.5 384 228.172 384 229C384 229.828 384.672 230.5 385.5 230.5H447.5C448.328 230.5 449 229.828 449 229C449 228.172 448.328 227.5 447.5 227.5Z" fill="#D1D5DB"/>
</svg>
