<svg width="536" height="345" viewBox="0 0 536 345" fill="none" xmlns="http://www.w3.org/2000/svg">
<path d="M184.376 49H38.5C36.0147 49 34 51.0147 34 53.5C34 55.9853 36.0147 58 38.5 58H184.376C186.861 58 188.876 55.9853 188.876 53.5C188.876 51.0147 186.861 49 184.376 49Z" fill="#6B7280"/>
<path d="M282 70H37C35.3431 70 34 71.3431 34 73C34 74.6569 35.3431 76 37 76H282C283.657 76 285 74.6569 285 73C285 71.3431 283.657 70 282 70Z" fill="#9CA3AF"/>
<path d="M233 82H37C35.3431 82 34 83.3431 34 85C34 86.6569 35.3431 88 37 88H233C234.657 88 236 86.6569 236 85C236 83.3431 234.657 82 233 82Z" fill="#9CA3AF"/>
<path d="M102.5 128H36.5C35.1193 128 34 129.119 34 130.5C34 131.881 35.1193 133 36.5 133H102.5C103.881 133 105 131.881 105 130.5C105 129.119 103.881 128 102.5 128Z" fill="#9CA3AF"/>
<path d="M144 140H36C34.8954 140 34 140.895 34 142C34 143.105 34.8954 144 36 144H144C145.105 144 146 143.105 146 142C146 140.895 145.105 140 144 140Z" fill="#D1D5DB"/>
<path d="M158 149H36C34.8954 149 34 149.895 34 151C34 152.105 34.8954 153 36 153H158C159.105 153 160 152.105 160 151C160 149.895 159.105 149 158 149Z" fill="#D1D5DB"/>
<path d="M121 158H36C34.8954 158 34 158.895 34 160C34 161.105 34.8954 162 36 162H121C122.105 162 123 161.105 123 160C123 158.895 122.105 158 121 158Z" fill="#D1D5DB"/>
<path d="M68.5 170H36C34.8954 170 34 170.895 34 172V179.09C34 180.195 34.8954 181.09 36 181.09H68.5C69.6046 181.09 70.5 180.195 70.5 179.09V172C70.5 170.895 69.6046 170 68.5 170Z" fill="#1A56DB"/>
<path d="M63 174H42C40.8954 174 40 174.657 40 175.467V175.533C40 176.343 40.8954 177 42 177H63C64.1046 177 65 176.343 65 175.533V175.467C65 174.657 64.1046 174 63 174Z" fill="white"/>
<path d="M273.5 128H207.5C206.119 128 205 129.119 205 130.5C205 131.881 206.119 133 207.5 133H273.5C274.881 133 276 131.881 276 130.5C276 129.119 274.881 128 273.5 128Z" fill="#9CA3AF"/>
<path d="M315 140H207C205.895 140 205 140.895 205 142C205 143.105 205.895 144 207 144H315C316.105 144 317 143.105 317 142C317 140.895 316.105 140 315 140Z" fill="#D1D5DB"/>
<path d="M329 149H207C205.895 149 205 149.895 205 151C205 152.105 205.895 153 207 153H329C330.105 153 331 152.105 331 151C331 149.895 330.105 149 329 149Z" fill="#D1D5DB"/>
<path d="M292 158H207C205.895 158 205 158.895 205 160C205 161.105 205.895 162 207 162H292C293.105 162 294 161.105 294 160C294 158.895 293.105 158 292 158Z" fill="#D1D5DB"/>
<path d="M239.5 170H207C205.895 170 205 170.895 205 172V179.09C205 180.195 205.895 181.09 207 181.09H239.5C240.605 181.09 241.5 180.195 241.5 179.09V172C241.5 170.895 240.605 170 239.5 170Z" fill="#1A56DB"/>
<path d="M234 174H213C211.895 174 211 174.657 211 175.467V175.533C211 176.343 211.895 177 213 177H234C235.105 177 236 176.343 236 175.533V175.467C236 174.657 235.105 174 234 174Z" fill="white"/>
<path d="M444.5 128H378.5C377.119 128 376 129.119 376 130.5C376 131.881 377.119 133 378.5 133H444.5C445.881 133 447 131.881 447 130.5C447 129.119 445.881 128 444.5 128Z" fill="#9CA3AF"/>
<path d="M486 140H378C376.895 140 376 140.895 376 142C376 143.105 376.895 144 378 144H486C487.105 144 488 143.105 488 142C488 140.895 487.105 140 486 140Z" fill="#D1D5DB"/>
<path d="M500 149H378C376.895 149 376 149.895 376 151C376 152.105 376.895 153 378 153H500C501.105 153 502 152.105 502 151C502 149.895 501.105 149 500 149Z" fill="#D1D5DB"/>
<path d="M463 158H378C376.895 158 376 158.895 376 160C376 161.105 376.895 162 378 162H463C464.105 162 465 161.105 465 160C465 158.895 464.105 158 463 158Z" fill="#D1D5DB"/>
<path d="M410.5 170H378C376.895 170 376 170.895 376 172V179.09C376 180.195 376.895 181.09 378 181.09H410.5C411.605 181.09 412.5 180.195 412.5 179.09V172C412.5 170.895 411.605 170 410.5 170Z" fill="#1A56DB"/>
<path d="M405 174H384C382.895 174 382 174.657 382 175.467V175.533C382 176.343 382.895 177 384 177H405C406.105 177 407 176.343 407 175.533V175.467C407 174.657 406.105 174 405 174Z" fill="white"/>
<path d="M102.5 221H36.5C35.1193 221 34 222.119 34 223.5C34 224.881 35.1193 226 36.5 226H102.5C103.881 226 105 224.881 105 223.5C105 222.119 103.881 221 102.5 221Z" fill="#9CA3AF"/>
<path d="M144 233H36C34.8954 233 34 233.895 34 235C34 236.105 34.8954 237 36 237H144C145.105 237 146 236.105 146 235C146 233.895 145.105 233 144 233Z" fill="#D1D5DB"/>
<path d="M158 242H36C34.8954 242 34 242.895 34 244C34 245.105 34.8954 246 36 246H158C159.105 246 160 245.105 160 244C160 242.895 159.105 242 158 242Z" fill="#D1D5DB"/>
<path d="M121 251H36C34.8954 251 34 251.895 34 253C34 254.105 34.8954 255 36 255H121C122.105 255 123 254.105 123 253C123 251.895 122.105 251 121 251Z" fill="#D1D5DB"/>
<path d="M68.5 263H36C34.8954 263 34 263.895 34 265V272.09C34 273.195 34.8954 274.09 36 274.09H68.5C69.6046 274.09 70.5 273.195 70.5 272.09V265C70.5 263.895 69.6046 263 68.5 263Z" fill="#1A56DB"/>
<path d="M63 267H42C40.8954 267 40 267.657 40 268.467V268.533C40 269.343 40.8954 270 42 270H63C64.1046 270 65 269.343 65 268.533V268.467C65 267.657 64.1046 267 63 267Z" fill="white"/>
<path d="M273.5 221H207.5C206.119 221 205 222.119 205 223.5C205 224.881 206.119 226 207.5 226H273.5C274.881 226 276 224.881 276 223.5C276 222.119 274.881 221 273.5 221Z" fill="#9CA3AF"/>
<path d="M315 233H207C205.895 233 205 233.895 205 235C205 236.105 205.895 237 207 237H315C316.105 237 317 236.105 317 235C317 233.895 316.105 233 315 233Z" fill="#D1D5DB"/>
<path d="M329 242H207C205.895 242 205 242.895 205 244C205 245.105 205.895 246 207 246H329C330.105 246 331 245.105 331 244C331 242.895 330.105 242 329 242Z" fill="#D1D5DB"/>
<path d="M292 251H207C205.895 251 205 251.895 205 253C205 254.105 205.895 255 207 255H292C293.105 255 294 254.105 294 253C294 251.895 293.105 251 292 251Z" fill="#D1D5DB"/>
<path d="M239.5 263H207C205.895 263 205 263.895 205 265V272.09C205 273.195 205.895 274.09 207 274.09H239.5C240.605 274.09 241.5 273.195 241.5 272.09V265C241.5 263.895 240.605 263 239.5 263Z" fill="#1A56DB"/>
<path d="M234 267H213C211.895 267 211 267.657 211 268.467V268.533C211 269.343 211.895 270 213 270H234C235.105 270 236 269.343 236 268.533V268.467C236 267.657 235.105 267 234 267Z" fill="white"/>
<path d="M444.5 221H378.5C377.119 221 376 222.119 376 223.5C376 224.881 377.119 226 378.5 226H444.5C445.881 226 447 224.881 447 223.5C447 222.119 445.881 221 444.5 221Z" fill="#9CA3AF"/>
<path d="M486 233H378C376.895 233 376 233.895 376 235C376 236.105 376.895 237 378 237H486C487.105 237 488 236.105 488 235C488 233.895 487.105 233 486 233Z" fill="#D1D5DB"/>
<path d="M500 242H378C376.895 242 376 242.895 376 244C376 245.105 376.895 246 378 246H500C501.105 246 502 245.105 502 244C502 242.895 501.105 242 500 242Z" fill="#D1D5DB"/>
<path d="M463 251H378C376.895 251 376 251.895 376 253C376 254.105 376.895 255 378 255H463C464.105 255 465 254.105 465 253C465 251.895 464.105 251 463 251Z" fill="#D1D5DB"/>
<path d="M410.5 263H378C376.895 263 376 263.895 376 265V272.09C376 273.195 376.895 274.09 378 274.09H410.5C411.605 274.09 412.5 273.195 412.5 272.09V265C412.5 263.895 411.605 263 410.5 263Z" fill="#1A56DB"/>
<path d="M405 267H384C382.895 267 382 267.657 382 268.467V268.533C382 269.343 382.895 270 384 270H405C406.105 270 407 269.343 407 268.533V268.467C407 267.657 406.105 267 405 267Z" fill="white"/>
</svg>
