<svg width="536" height="345" viewBox="0 0 536 345" fill="none" xmlns="http://www.w3.org/2000/svg">
<g clip-path="url(#clip0_53_137)">
<mask id="mask0_53_137" style="mask-type:luminance" maskUnits="userSpaceOnUse" x="0" y="0" width="536" height="345">
<path d="M536 0H0V345H536V0Z" fill="white"/>
</mask>
<g mask="url(#mask0_53_137)">
<path d="M411.737 97H123.263C115.938 97 110 101.036 110 106.015V238.985C110 243.964 115.938 248 123.263 248H411.737C419.062 248 425 243.964 425 238.985V106.015C425 101.036 419.062 97 411.737 97Z" fill="#E5E7EB"/>
<path d="M340 44H196C193.515 44 191.5 46.0147 191.5 48.5C191.5 50.9853 193.515 53 196 53H340C342.485 53 344.5 50.9853 344.5 48.5C344.5 46.0147 342.485 44 340 44Z" fill="#6B7280"/>
<path d="M422.5 67H113.5C111.843 67 110.5 68.3431 110.5 70C110.5 71.6569 111.843 73 113.5 73H422.5C424.157 73 425.5 71.6569 425.5 70C425.5 68.3431 424.157 67 422.5 67Z" fill="#9CA3AF"/>
<path d="M408 79H128C126.343 79 125 80.3431 125 82C125 83.6569 126.343 85 128 85H408C409.657 85 411 83.6569 411 82C411 80.3431 409.657 79 408 79Z" fill="#9CA3AF"/>
<circle cx="268" cy="173" r="22" fill="#9CA3AF"/>
<path d="M277 171.768C278.333 172.538 278.333 174.462 277 175.232L264.25 182.593C262.917 183.363 261.25 182.401 261.25 180.861L261.25 166.139C261.25 164.599 262.917 163.637 264.25 164.407L277 171.768Z" fill="#E5E7EB"/>
</g>
</g>
<defs>
<clipPath id="clip0_53_137">
<rect width="536" height="345" fill="white"/>
</clipPath>
</defs>
</svg>
