<svg width="536" height="345" viewBox="0 0 536 345" fill="none" xmlns="http://www.w3.org/2000/svg">
<g clip-path="url(#clip0_42_64)">
<mask id="mask0_42_64" style="mask-type:luminance" maskUnits="userSpaceOnUse" x="0" y="0" width="536" height="345">
<path d="M536 0H0V345H536V0Z" fill="white"/>
</mask>
<g mask="url(#mask0_42_64)">
<path d="M144.5 46H41.5C39.0147 46 37 48.0147 37 50.5C37 52.9853 39.0147 55 41.5 55H144.5C146.985 55 149 52.9853 149 50.5C149 48.0147 146.985 46 144.5 46Z" fill="#9CA3AF"/>
<path d="M227 64H40C38.3431 64 37 65.3431 37 67C37 68.6569 38.3431 70 40 70H227C228.657 70 230 68.6569 230 67C230 65.3431 228.657 64 227 64Z" fill="#D1D5DB"/>
<path d="M253 76H40C38.3431 76 37 77.3431 37 79C37 80.6569 38.3431 82 40 82H253C254.657 82 256 80.6569 256 79C256 77.3431 254.657 76 253 76Z" fill="#D1D5DB"/>
<path d="M164 88H40C38.3431 88 37 89.3431 37 91C37 92.6569 38.3431 94 40 94H164C165.657 94 167 92.6569 167 91C167 89.3431 165.657 88 164 88Z" fill="#D1D5DB"/>
<path d="M168.5 110V109.5H168H39C37.6193 109.5 36.5 110.619 36.5 112V124C36.5 125.381 37.6193 126.5 39 126.5H168H168.5V126V110Z" fill="white"/>
<path d="M99 117H45C44.4477 117 44 117.448 44 118C44 118.552 44.4477 119 45 119H99C99.5523 119 100 118.552 100 118C100 117.448 99.5523 117 99 117Z" fill="#E5E7EB"/>
<path d="M168.5 110V109.5H168H39C37.6193 109.5 36.5 110.619 36.5 112V124C36.5 125.381 37.6193 126.5 39 126.5H168H168.5V126V110Z" stroke="#D1D5DB"/>
<path d="M168 109.5H167.5V110V126V126.5H168H240C241.381 126.5 242.5 125.381 242.5 124V112C242.5 110.619 241.381 109.5 240 109.5H168Z" fill="#1A56DB"/>
<path d="M225 116H185C184.448 116 184 116.448 184 117V119C184 119.552 184.448 120 185 120H225C225.552 120 226 119.552 226 119V117C226 116.448 225.552 116 225 116Z" fill="white"/>
<path d="M168 109.5H167.5V110V126V126.5H168H240C241.381 126.5 242.5 125.381 242.5 124V112C242.5 110.619 241.381 109.5 240 109.5H168Z" stroke="#1A56DB"/>
<path d="M491 29H345C340.582 29 337 32.5817 337 37V135C337 139.418 340.582 143 345 143H491C495.418 143 499 139.418 499 135V37C499 32.5817 495.418 29 491 29Z" fill="#F3F4F6"/>
<path fill-rule="evenodd" clip-rule="evenodd" d="M429.344 78.1759C431.368 78.1759 433.009 76.4576 433.009 74.3379C433.009 72.2183 431.368 70.5 429.344 70.5C427.32 70.5 425.679 72.2183 425.679 74.3379C425.679 76.4576 427.32 78.1759 429.344 78.1759ZM419.2 101.416H397.045C396.267 101.416 395.787 100.569 396.187 99.902L411.303 74.7033C411.685 74.0658 412.601 74.049 413 74.6764C414.958 77.7568 419.883 85.5179 424.073 92.2128L428.617 84.5924C428.985 83.9759 429.848 83.9557 430.257 84.554L440.72 99.8333C441.178 100.503 440.732 101.421 439.943 101.429L429.79 101.532L419.2 101.416Z" fill="#D1D5DB"/>
<path d="M191 202H45C40.5817 202 37 205.582 37 210V308C37 312.418 40.5817 316 45 316H191C195.418 316 199 312.418 199 308V210C199 205.582 195.418 202 191 202Z" fill="#F3F4F6"/>
<path fill-rule="evenodd" clip-rule="evenodd" d="M129.344 251.176C131.368 251.176 133.009 249.458 133.009 247.338C133.009 245.218 131.368 243.5 129.344 243.5C127.32 243.5 125.679 245.218 125.679 247.338C125.679 249.458 127.32 251.176 129.344 251.176ZM119.2 274.416H97.0445C96.2673 274.416 95.7871 273.569 96.187 272.902L111.303 247.703C111.685 247.066 112.601 247.049 113 247.676C114.958 250.757 119.883 258.518 124.073 265.213L128.617 257.592C128.985 256.976 129.848 256.956 130.257 257.554L140.72 272.833C141.178 273.503 140.732 274.421 139.943 274.429L129.79 274.532L119.2 274.416Z" fill="#D1D5DB"/>
<path d="M368.5 219H265.5C263.015 219 261 221.015 261 223.5C261 225.985 263.015 228 265.5 228H368.5C370.985 228 373 225.985 373 223.5C373 221.015 370.985 219 368.5 219Z" fill="#9CA3AF"/>
<path d="M451 237H264C262.343 237 261 238.343 261 240C261 241.657 262.343 243 264 243H451C452.657 243 454 241.657 454 240C454 238.343 452.657 237 451 237Z" fill="#D1D5DB"/>
<path d="M477 249H264C262.343 249 261 250.343 261 252C261 253.657 262.343 255 264 255H477C478.657 255 480 253.657 480 252C480 250.343 478.657 249 477 249Z" fill="#D1D5DB"/>
<path d="M388 261H264C262.343 261 261 262.343 261 264C261 265.657 262.343 267 264 267H388C389.657 267 391 265.657 391 264C391 262.343 389.657 261 388 261Z" fill="#D1D5DB"/>
<path d="M333 282.5H263C261.619 282.5 260.5 283.619 260.5 285V297C260.5 298.381 261.619 299.5 263 299.5H333C334.381 299.5 335.5 298.381 335.5 297V285C335.5 283.619 334.381 282.5 333 282.5Z" fill="#1A56DB"/>
<path d="M318 289H278C277.448 289 277 289.448 277 290V292C277 292.552 277.448 293 278 293H318C318.552 293 319 292.552 319 292V290C319 289.448 318.552 289 318 289Z" fill="white"/>
<path d="M333 282.5H263C261.619 282.5 260.5 283.619 260.5 285V297C260.5 298.381 261.619 299.5 263 299.5H333C334.381 299.5 335.5 298.381 335.5 297V285C335.5 283.619 334.381 282.5 333 282.5Z" stroke="#1A56DB"/>
</g>
</g>
<defs>
<clipPath id="clip0_42_64">
<rect width="536" height="345" fill="white"/>
</clipPath>
</defs>
</svg>
