<svg class="{{ class }} icon-ballot-box" width="30" height="30" viewBox="0 0 30 30" fill="none" xmlns="http://www.w3.org/2000/svg">
<path d="M26 12.75H4C3.58582 12.75 3.25 13.0858 3.25 13.5V15.5C3.25 15.9142 3.58582 16.25 4 16.25H26C26.4142 16.25 26.75 15.9142 26.75 15.5V13.5C26.75 13.0858 26.4142 12.75 26 12.75Z" fill="currentColor"/>
<path d="M19.75 4C19.75 3.58594 19.4141 3.25 19 3.25H11C10.5859 3.25 10.25 3.58594 10.25 4V11.25H19.75V4ZM17.0303 6.78027L15.0303 8.78027C14.8838 8.92676 14.6919 9 14.5 9C14.3081 9 14.1162 8.92676 13.9697 8.78027L12.9697 7.78027C12.6768 7.4873 12.6768 7.01269 12.9697 6.71972C13.2627 6.42675 13.7373 6.42675 14.0303 6.71972L14.5 7.18945L15.9697 5.71972C16.2627 5.42675 16.7373 5.42675 17.0303 5.71972C17.3232 6.01269 17.3232 6.4873 17.0303 6.78027Z" fill="currentColor"/>
<path d="M5.25 26C5.25 26.4141 5.58594 26.75 6 26.75H24C24.4141 26.75 24.75 26.4141 24.75 26V17.75H5.25V26ZM11.5 20H17.5C17.9141 20 18.25 20.3359 18.25 20.75C18.25 21.1641 17.9141 21.5 17.5 21.5H11.5C11.0859 21.5 10.75 21.1641 10.75 20.75C10.75 20.3359 11.0859 20 11.5 20ZM9.5 23H20.5C20.9141 23 21.25 23.3359 21.25 23.75C21.25 24.1641 20.9141 24.5 20.5 24.5H9.5C9.08594 24.5 8.75 24.1641 8.75 23.75C8.75 23.3359 9.08594 23 9.5 23Z" fill="currentColor"/>
</svg>